<svg xmlns="http://www.w3.org/2000/svg" xmlns:xlink="http://www.w3.org/1999/xlink" xmlns:lucid="lucid" width="1760" height="1360"><g transform="translate(0 0)" lucid:page-tab-id="HWEp-vi-RSFO"><path d="M0 0h1760v1360H0z" fill="#fff"/><path d="M460 306h560v334H460z" stroke="#333" stroke-width="2" fill="#fff"/><path d="M460 343.6h560M460 402h560" stroke="#333" stroke-width="2" fill="none"/><use xlink:href="#a" transform="matrix(1,0,0,1,468,314) translate(220.0213581562042 14.6)"/><use xlink:href="#b" transform="matrix(1,0,0,1,468,314) translate(269.9213581562042 14.6)"/><use xlink:href="#c" transform="matrix(1,0,0,1,472,351.6) translate(0 24.984444427490235)"/><use xlink:href="#d" transform="matrix(1,0,0,1,472,351.6) translate(183.9012336730957 24.984444427490235)"/><use xlink:href="#e" transform="matrix(1,0,0,1,472,410.00666656494144) translate(0 27.944444444444468)"/><use xlink:href="#f" transform="matrix(1,0,0,1,472,410.00666656494144) translate(277.5595053802301 27.944444444444468)"/><use xlink:href="#g" transform="matrix(1,0,0,1,472,410.00666656494144) translate(298.29530775988536 27.944444444444468)"/><use xlink:href="#h" transform="matrix(1,0,0,1,472,410.00666656494144) translate(317.5577768125651 27.944444444444468)"/><use xlink:href="#i" transform="matrix(1,0,0,1,472,410.00666656494144) translate(374.2538259506225 27.944444444444468)"/><use xlink:href="#j" transform="matrix(1,0,0,1,472,410.00666656494144) translate(438.64394912955197 27.944444444444468)"/><use xlink:href="#k" transform="matrix(1,0,0,1,472,410.00666656494144) translate(0 53.01111111111112)"/><use xlink:href="#l" transform="matrix(1,0,0,1,472,410.00666656494144) translate(0 78.07777777777778)"/><use xlink:href="#m" transform="matrix(1,0,0,1,472,410.00666656494144) translate(0 103.14444444444443)"/><use xlink:href="#n" transform="matrix(1,0,0,1,472,410.00666656494144) translate(270.9567893593399 103.14444444444443)"/><use xlink:href="#o" transform="matrix(1,0,0,1,472,410.00666656494144) translate(0 128.21111111111108)"/><use xlink:href="#p" transform="matrix(1,0,0,1,472,410.00666656494144) translate(0 153.27777777777777)"/><use xlink:href="#q" transform="matrix(1,0,0,1,472,410.00666656494144) translate(0 178.34444444444443)"/><use xlink:href="#r" transform="matrix(1,0,0,1,472,410.00666656494144) translate(0 203.4111111111111)"/><path d="M660 813.93h360v182H660z" stroke="#333" stroke-width="2" fill="#fff"/><path d="M660 851.53h360m-360 59.1h360" stroke="#333" stroke-width="2" fill="none"/><use xlink:href="#s" transform="matrix(1,0,0,1,668,821.9320210603572) translate(123.8 14.6)"/><use xlink:href="#t" transform="matrix(1,0,0,1,668,821.9320210603572) translate(173.7 14.6)"/><use xlink:href="#u" transform="matrix(1,0,0,1,672,918.6320210603573) translate(0 27)"/><use xlink:href="#v" transform="matrix(1,0,0,1,672,918.6320210603573) translate(270.27777777777777 27)"/><use xlink:href="#w" transform="matrix(1,0,0,1,672,918.6320210603573) translate(0 51)"/><path d="M590 1120h560v202H590z" stroke="#333" stroke-width="2" fill="#fff"/><path d="M590 1157.6h560M590 1216h560" stroke="#333" stroke-width="2" fill="none"/><use xlink:href="#x" transform="matrix(1,0,0,1,598,1128) translate(224.18333344459535 14.6)"/><use xlink:href="#y" transform="matrix(1,0,0,1,598,1128) translate(274.0833334445954 14.6)"/><use xlink:href="#z" transform="matrix(1,0,0,1,602,1165.6) translate(0 24.984444427490235)"/><use xlink:href="#A" transform="matrix(1,0,0,1,602,1165.6) translate(183.9012336730957 24.984444427490235)"/><use xlink:href="#B" transform="matrix(1,0,0,1,602,1224.0066665649413) translate(0 27.0466667175293)"/><use xlink:href="#C" transform="matrix(1,0,0,1,602,1224.0066665649413) translate(220.2222222222222 27.0466667175293)"/><use xlink:href="#D" transform="matrix(1,0,0,1,602,1224.0066665649413) translate(263.44444444444446 27.0466667175293)"/><use xlink:href="#E" transform="matrix(1,0,0,1,602,1224.0066665649413) translate(284.55555555555554 27.0466667175293)"/><use xlink:href="#F" transform="matrix(1,0,0,1,602,1224.0066665649413) translate(0 51.0466667175293)"/><use xlink:href="#G" transform="matrix(1,0,0,1,602,1224.0066665649413) translate(0 72.98444442749023)"/><path d="M1180 1120h560v202h-560z" stroke="#333" stroke-width="2" fill="#fff"/><path d="M1180 1157.6h560m-560 58.4h560" stroke="#333" stroke-width="2" fill="none"/><use xlink:href="#x" transform="matrix(1,0,0,1,1188,1128) translate(232.55567908287048 14.6)"/><use xlink:href="#H" transform="matrix(1,0,0,1,1188,1128) translate(282.45567908287046 14.6)"/><use xlink:href="#z" transform="matrix(1,0,0,1,1192,1165.6) translate(0 24.984444427490235)"/><use xlink:href="#A" transform="matrix(1,0,0,1,1192,1165.6) translate(183.9012336730957 24.984444427490235)"/><use xlink:href="#B" transform="matrix(1,0,0,1,1192,1224.0066665649413) translate(0 27.0466667175293)"/><use xlink:href="#C" transform="matrix(1,0,0,1,1192,1224.0066665649413) translate(220.2222222222222 27.0466667175293)"/><use xlink:href="#D" transform="matrix(1,0,0,1,1192,1224.0066665649413) translate(263.44444444444446 27.0466667175293)"/><use xlink:href="#E" transform="matrix(1,0,0,1,1192,1224.0066665649413) translate(284.55555555555554 27.0466667175293)"/><use xlink:href="#F" transform="matrix(1,0,0,1,1192,1224.0066665649413) translate(0 51.0466667175293)"/><use xlink:href="#G" transform="matrix(1,0,0,1,1192,1224.0066665649413) translate(0 72.98444442749023)"/><path d="M340 40h560v202H340z" stroke="#333" stroke-width="2" fill="#fff"/><path d="M340 77.6h560M340 136h560" stroke="#333" stroke-width="2" fill="none"/><use xlink:href="#x" transform="matrix(1,0,0,1,348,48) translate(215.1334569454193 14.6)"/><use xlink:href="#I" transform="matrix(1,0,0,1,348,48) translate(265.0334569454193 14.6)"/><use xlink:href="#z" transform="matrix(1,0,0,1,352,85.6) translate(0 24.984444427490235)"/><use xlink:href="#A" transform="matrix(1,0,0,1,352,85.6) translate(183.9012336730957 24.984444427490235)"/><use xlink:href="#J" transform="matrix(1,0,0,1,352,144.00666656494138) translate(0 27.0466667175293)"/><use xlink:href="#K" transform="matrix(1,0,0,1,352,144.00666656494138) translate(220.2222222222222 27.0466667175293)"/><use xlink:href="#D" transform="matrix(1,0,0,1,352,144.00666656494138) translate(317.88888888888886 27.0466667175293)"/><use xlink:href="#E" transform="matrix(1,0,0,1,352,144.00666656494138) translate(338.99999999999994 27.0466667175293)"/><use xlink:href="#F" transform="matrix(1,0,0,1,352,144.00666656494138) translate(0 51.0466667175293)"/><use xlink:href="#G" transform="matrix(1,0,0,1,352,144.00666656494138) translate(0 72.98444442749023)"/><path d="M0 1120h560v202H0z" stroke="#333" stroke-width="2" fill="#fff"/><path d="M0 1157.6h560M0 1216h560" stroke="#333" stroke-width="2" fill="none"/><use xlink:href="#x" transform="matrix(1,0,0,1,8,1128) translate(205.01888909339905 14.6)"/><use xlink:href="#L" transform="matrix(1,0,0,1,8,1128) translate(254.91888909339906 14.6)"/><use xlink:href="#z" transform="matrix(1,0,0,1,12,1165.6) translate(0 24.984444427490235)"/><use xlink:href="#A" transform="matrix(1,0,0,1,12,1165.6) translate(183.9012336730957 24.984444427490235)"/><use xlink:href="#B" transform="matrix(1,0,0,1,12,1224.0066665649413) translate(0 27.0466667175293)"/><use xlink:href="#C" transform="matrix(1,0,0,1,12,1224.0066665649413) translate(220.2222222222222 27.0466667175293)"/><use xlink:href="#D" transform="matrix(1,0,0,1,12,1224.0066665649413) translate(263.44444444444446 27.0466667175293)"/><use xlink:href="#E" transform="matrix(1,0,0,1,12,1224.0066665649413) translate(284.55555555555554 27.0466667175293)"/><use xlink:href="#F" transform="matrix(1,0,0,1,12,1224.0066665649413) translate(0 51.0466667175293)"/><use xlink:href="#G" transform="matrix(1,0,0,1,12,1224.0066665649413) translate(0 72.98444442749023)"/><path d="M0 434h360v206H0z" stroke="#333" stroke-width="2" fill="#fff"/><path d="M0 471.6h360M0 530.7h360" stroke="#333" stroke-width="2" fill="none"/><use xlink:href="#x" transform="matrix(1,0,0,1,8,442) translate(108.40654339790345 14.6)"/><use xlink:href="#M" transform="matrix(1,0,0,1,8,442) translate(158.30654339790345 14.6)"/><use xlink:href="#N" transform="matrix(1,0,0,1,12,538.7) translate(0 27)"/><use xlink:href="#O" transform="matrix(1,0,0,1,12,538.7) translate(220.2222222222222 27)"/><use xlink:href="#P" transform="matrix(1,0,0,1,12,538.7) translate(241.33333333333331 27)"/><use xlink:href="#Q" transform="matrix(1,0,0,1,12,538.7) translate(260.9444444444444 27)"/><use xlink:href="#R" transform="matrix(1,0,0,1,12,538.7) translate(0 51)"/><use xlink:href="#S" transform="matrix(1,0,0,1,12,538.7) translate(0 75)"/><use xlink:href="#T" transform="matrix(1,0,0,1,12,538.7) translate(193.55555555555554 75)"/><path d="M1040 640h560v202h-560z" stroke="#333" stroke-width="2" fill="#fff"/><path d="M1040 677.6h560M1040 736h560" stroke="#333" stroke-width="2" fill="none"/><g><use xlink:href="#x" transform="matrix(1,0,0,1,1048,648) translate(225.32061738967894 14.6)"/><use xlink:href="#U" transform="matrix(1,0,0,1,1048,648) translate(275.220617389679 14.6)"/></g><g><use xlink:href="#z" transform="matrix(1,0,0,1,1052,685.6) translate(0 24.984444427490235)"/><use xlink:href="#A" transform="matrix(1,0,0,1,1052,685.6) translate(183.9012336730957 24.984444427490235)"/></g><g><use xlink:href="#B" transform="matrix(1,0,0,1,1052,744.0066665649414) translate(0 27.0466667175293)"/><use xlink:href="#V" transform="matrix(1,0,0,1,1052,744.0066665649414) translate(220.2222222222222 27.0466667175293)"/><use xlink:href="#D" transform="matrix(1,0,0,1,1052,744.0066665649414) translate(306.7222222222222 27.0466667175293)"/><use xlink:href="#E" transform="matrix(1,0,0,1,1052,744.0066665649414) translate(327.83333333333326 27.0466667175293)"/><use xlink:href="#F" transform="matrix(1,0,0,1,1052,744.0066665649414) translate(0 51.0466667175293)"/><use xlink:href="#G" transform="matrix(1,0,0,1,1052,744.0066665649414) translate(0 72.98444442749023)"/></g><path d="M1180 120h560v202h-560z" stroke="#333" stroke-width="2" fill="#fff"/><path d="M1180 157.6h560M1180 216h560" stroke="#333" stroke-width="2" fill="none"/><g><use xlink:href="#W" transform="matrix(1,0,0,1,1188,128) translate(212.075 14.6)"/><use xlink:href="#X" transform="matrix(1,0,0,1,1188,128) translate(261.975 14.6)"/></g><g><use xlink:href="#z" transform="matrix(1,0,0,1,1192,165.6) translate(0 24.984444427490235)"/><use xlink:href="#A" transform="matrix(1,0,0,1,1192,165.6) translate(183.9012336730957 24.984444427490235)"/></g><g><use xlink:href="#B" transform="matrix(1,0,0,1,1192,224.00666656494138) translate(0 27.0466667175293)"/><use xlink:href="#V" transform="matrix(1,0,0,1,1192,224.00666656494138) translate(220.2222222222222 27.0466667175293)"/><use xlink:href="#D" transform="matrix(1,0,0,1,1192,224.00666656494138) translate(306.7222222222222 27.0466667175293)"/><use xlink:href="#E" transform="matrix(1,0,0,1,1192,224.00666656494138) translate(327.83333333333326 27.0466667175293)"/><use xlink:href="#F" transform="matrix(1,0,0,1,1192,224.00666656494138) translate(0 51.0466667175293)"/><use xlink:href="#G" transform="matrix(1,0,0,1,1192,224.00666656494138) translate(0 72.98444442749023)"/></g><path d="M1157.66 400h484.68v202h-484.68z" stroke="#333" stroke-width="2" fill="#fff"/><path d="M1157.66 436.9h484.68m-484.68 58.4h484.68" stroke="#333" stroke-width="2" fill="none"/><g><use xlink:href="#Y" transform="matrix(1,0,0,1,1165.6616773188957,408) translate(174.56271634101867 13.984444427490235)"/><use xlink:href="#Z" transform="matrix(1,0,0,1,1165.6616773188957,408) translate(219.03777785301207 13.984444427490235)"/></g><g><use xlink:href="#z" transform="matrix(1,0,0,1,1169.6616773188957,444.9066665649414) translate(0 24.984444427490235)"/><use xlink:href="#A" transform="matrix(1,0,0,1,1169.6616773188957,444.9066665649414) translate(183.9012336730957 24.984444427490235)"/></g><g><use xlink:href="#B" transform="matrix(1,0,0,1,1169.6616773188957,503.31333312988284) translate(0 27.0466667175293)"/><use xlink:href="#aa" transform="matrix(1,0,0,1,1169.6616773188957,503.31333312988284) translate(220.2222222222222 27.0466667175293)"/><use xlink:href="#D" transform="matrix(1,0,0,1,1169.6616773188957,503.31333312988284) translate(277.94444444444446 27.0466667175293)"/><use xlink:href="#E" transform="matrix(1,0,0,1,1169.6616773188957,503.31333312988284) translate(299.05555555555554 27.0466667175293)"/><use xlink:href="#F" transform="matrix(1,0,0,1,1169.6616773188957,503.31333312988284) translate(0 51.0466667175293)"/><use xlink:href="#G" transform="matrix(1,0,0,1,1169.6616773188957,503.31333312988284) translate(0 72.98444442749023)"/></g><path d="M60 777h360v206H60z" stroke="#333" stroke-width="2" fill="#fff"/><path d="M60 814.6h360M60 873.7h360" stroke="#333" stroke-width="2" fill="none"/><g><use xlink:href="#x" transform="matrix(1,0,0,1,68,785) translate(99.67123479843139 14.6)"/><use xlink:href="#ab" transform="matrix(1,0,0,1,68,785) translate(149.5712347984314 14.6)"/></g><g><use xlink:href="#N" transform="matrix(1,0,0,1,72,881.7) translate(0 27)"/><use xlink:href="#ac" transform="matrix(1,0,0,1,72,881.7) translate(220.2222222222222 27)"/><use xlink:href="#ad" transform="matrix(1,0,0,1,72,881.7) translate(0 51)"/><use xlink:href="#ae" transform="matrix(1,0,0,1,72,881.7) translate(64.33333333333334 51)"/><use xlink:href="#af" transform="matrix(1,0,0,1,72,881.7) translate(0 75)"/></g><path d="M1460 118.5V91a12 12 0 0 0-12-12h-375a12 12 0 0 0-12 12v370a12 12 0 0 1-12 12h-11.62" stroke="#333" fill="none"/><path d="M1460.5 119h-1v-.5h1z" stroke="#333" stroke-width=".05" fill="#333"/><path d="M1022.62 473l14.26-4.63v9.26z" stroke="#333" fill="#333"/><path d="M620 243.5V262a12 12 0 0 0 12 12h96a12 12 0 0 1 12 12v2.62" stroke="#333" fill="none"/><path d="M620.5 243.5h-1v-.5h1z" stroke="#333" stroke-width=".05" fill="#333"/><path d="M740 303.38l-4.63-14.26h9.26z" stroke="#333" fill="#333"/><path d="M1400 398.5V373a12 12 0 0 1 12-12h36a12 12 0 0 0 12-12v-9.62" stroke="#333" fill="none"/><path d="M1400.5 399h-1v-.5h1z" stroke="#333" stroke-width=".05" fill="#333"/><path d="M1460 324.62l4.63 14.26h-9.27z" stroke="#333" fill="#333"/><path d="M180 432.5V405a12 12 0 0 1 12-12h215a12 12 0 0 1 12 12v56a12 12 0 0 0 12 12h11.62" stroke="#333" fill="none"/><path d="M180.5 433h-1v-.5h1z" stroke="#333" stroke-width=".05" fill="#333"/><path d="M457.38 473l-14.26 4.63v-9.26z" stroke="#333" fill="#333"/><path d="M1178.5 221H1112a12 12 0 0 1-12-12v-56a12 12 0 0 0-12-12H917.38" stroke="#333" fill="none"/><path d="M1179 221.5h-.5v-1h.5z" stroke="#333" stroke-width=".05" fill="#333"/><path d="M902.62 141l14.26-4.63v9.26z" stroke="#333" fill="#333"/><path d="M1038.5 741H752a12 12 0 0 1-12-12v-71.62" stroke="#333" fill="none"/><path d="M1039 741.5h-.5v-1h.5z" stroke="#333" stroke-width=".05" fill="#333"/><path d="M740 642.62l4.63 14.26h-9.26z" stroke="#333" fill="#333"/><path d="M278.13 1118.5V1042a12 12 0 0 1 12-12h166.44a12 12 0 0 0 12-12V916.93a12 12 0 0 1 12-12H642.6" stroke="#333" fill="none"/><path d="M278.63 1119h-1v-.5h1z" stroke="#333" stroke-width=".05" fill="#333"/><path d="M657.38 904.93l-14.26 4.64v-9.27z" stroke="#333" fill="#333"/><path d="M870 1118.5v-48.53a12 12 0 0 0-12-12h-6a12 12 0 0 1-12-12v-32.65" stroke="#333" fill="none"/><path d="M870.5 1119h-1v-.5h1z" stroke="#333" stroke-width=".05" fill="#333"/><path d="M840 998.55l4.63 14.27h-9.26z" stroke="#333" fill="#333"/><path d="M1460 1118.5V916.93a12 12 0 0 0-12-12h-410.62" stroke="#333" fill="none"/><path d="M1460.5 1119h-1v-.5h1z" stroke="#333" stroke-width=".05" fill="#333"/><path d="M1022.62 904.93l14.26-4.63v9.27z" stroke="#333" fill="#333"/><path d="M421.5 880H449a12 12 0 0 0 12-12v-83.07a12 12 0 0 1 12-12h355a12 12 0 0 1 12 12v11.62" stroke="#333" fill="none"/><path d="M421.5 880.5h-.5v-1h.5z" stroke="#333" stroke-width=".05" fill="#333"/><path d="M840 811.3l-4.63-14.25h9.26z" stroke="#333" fill="#333"/><defs><path fill="#333" d="M212-179c-10-28-35-45-73-45-59 0-87 40-87 99 0 60 29 101 89 101 43 0 62-24 78-52l27 14C228-24 195 4 139 4 59 4 22-46 18-125c-6-104 99-153 187-111 19 9 31 26 39 46" id="ag"/><path fill="#333" d="M24 0v-261h32V0H24" id="ah"/><path fill="#333" d="M141-36C126-15 110 5 73 4 37 3 15-17 15-53c-1-64 63-63 125-63 3-35-9-54-41-54-24 1-41 7-42 31l-33-3c5-37 33-52 76-52 45 0 72 20 72 64v82c-1 20 7 32 28 27v20c-31 9-61-2-59-35zM48-53c0 20 12 33 32 33 41-3 63-29 60-74-43 2-92-5-92 41" id="ai"/><path fill="#333" d="M135-143c-3-34-86-38-87 0 15 53 115 12 119 90S17 21 10-45l28-5c4 36 97 45 98 0-10-56-113-15-118-90-4-57 82-63 122-42 12 7 21 19 24 35" id="aj"/><g id="a"><use transform="matrix(0.05,0,0,0.05,0,0)" xlink:href="#ag"/><use transform="matrix(0.05,0,0,0.05,12.950000000000001,0)" xlink:href="#ah"/><use transform="matrix(0.05,0,0,0.05,16.900000000000002,0)" xlink:href="#ai"/><use transform="matrix(0.05,0,0,0.05,26.900000000000002,0)" xlink:href="#aj"/><use transform="matrix(0.05,0,0,0.05,35.900000000000006,0)" xlink:href="#aj"/></g><path d="M185-189c-5-48-123-54-124 2 14 75 158 14 163 119 3 78-121 87-175 55-17-10-28-26-33-46l33-7c5 56 141 63 141-1 0-78-155-14-162-118-5-82 145-84 179-34 5 7 8 16 11 25" id="ak"/><path d="M100-194c62-1 85 37 85 99 1 63-27 99-86 99S16-35 15-95c0-66 28-99 85-99zM99-20c44 1 53-31 53-75 0-43-8-75-51-75s-53 32-53 75 10 74 51 75" id="al"/><path d="M24 0v-261h32V0H24" id="am"/><path d="M85-194c31 0 48 13 60 33l-1-100h32l1 261h-30c-2-10 0-23-3-31C134-8 116 4 85 4 32 4 16-35 15-94c0-66 23-100 70-100zm9 24c-40 0-46 34-46 75 0 40 6 74 45 74 42 0 51-32 51-76 0-42-9-74-50-73" id="an"/><path d="M24-231v-30h32v30H24zM24 0v-190h32V0H24" id="ao"/><path d="M100-194c63 0 86 42 84 106H49c0 40 14 67 53 68 26 1 43-12 49-29l28 8c-11 28-37 45-77 45C44 4 14-33 15-96c1-61 26-98 85-98zm52 81c6-60-76-77-97-28-3 7-6 17-6 28h103" id="ap"/><path d="M114-163C36-179 61-72 57 0H25l-1-190h30c1 12-1 29 2 39 6-27 23-49 58-41v29" id="aq"/><g id="b"><use transform="matrix(0.04839506149291992,0,0,0.04839506149291992,0,0)" xlink:href="#ak"/><use transform="matrix(0.04839506149291992,0,0,0.04839506149291992,11.614814758300781,0)" xlink:href="#al"/><use transform="matrix(0.04839506149291992,0,0,0.04839506149291992,21.293827056884766,0)" xlink:href="#am"/><use transform="matrix(0.04839506149291992,0,0,0.04839506149291992,25.11703691482544,0)" xlink:href="#an"/><use transform="matrix(0.04839506149291992,0,0,0.04839506149291992,34.796049213409425,0)" xlink:href="#ao"/><use transform="matrix(0.04839506149291992,0,0,0.04839506149291992,38.6192590713501,0)" xlink:href="#ap"/><use transform="matrix(0.04839506149291992,0,0,0.04839506149291992,48.298271369934085,0)" xlink:href="#aq"/></g><path d="M67-162c32-53 139-36 121 50C175-51 163 2 97 4 68 4 52-11 42-31 38 6 28 39 22 75H-9l50-265h29c-1 10 0 20-3 28zm89 36c0-26-10-43-35-43-54 0-67 50-69 103-1 29 14 45 42 46 53 0 62-58 62-106" id="ar"/><path d="M198-190L69 30C53 58 25 83-20 72c4-11-1-27 19-22 33-1 43-29 59-52L20-190h32L79-34l84-156h35" id="as"/><path d="M103-194c29 0 47 14 56 36 2-11 5-23 8-32h30L160-5C157 61 82 97 21 62 9 55 4 45 1 30l28-7c7 42 83 31 92-3 4-16 9-38 13-55-13 20-29 36-62 36-40 0-60-25-60-64 0-71 23-131 91-131zm4 24c-53 0-58 54-61 104-2 27 10 44 36 44 49 0 65-50 67-102 1-29-15-46-42-46" id="at"/><path d="M165-48c-4 18 1 34 23 27l-3 20c-29 8-62 0-52-35h-2C116-14 99 4 63 4 30 4 8-16 8-49c0-68 71-67 138-67 10-26 0-56-31-54-26 1-42 9-47 31l-32-5c8-67 160-71 144 15-5 28-9 54-15 81zM42-50c3 52 80 24 89-6 7-12 7-24 11-38-47 1-103-4-100 44" id="au"/><path d="M248-111c6-24 9-61-24-58-72 9-57 108-77 169h-31l26-142c3-37-50-30-64-10C52-115 50-51 37 0H6l36-190h30c-1 10-6 24-4 32 13-43 101-52 105 5 13-22 29-41 61-41 90 0 28 129 23 194h-31" id="av"/><path d="M111-194c62-3 86 47 72 106H45c-7 38 6 69 45 68 27-1 43-14 53-32l24 11C152-15 129 4 87 4 38 3 12-23 12-71c0-70 32-119 99-123zm44 81c14-66-71-72-95-28-4 8-8 17-11 28h106" id="aw"/><path d="M14 0l8-38h34L48 0H14" id="ax"/><path d="M55-144c13 50 104 24 104 88C159 21 15 23 1-39l26-10c6 40 102 42 102-4-13-50-104-23-104-87 0-71 143-71 148-8l-29 4c-5-35-85-37-89 0" id="ay"/><path d="M66-151c12-25 30-51 66-40l-6 26C45-176 58-65 38 0H6l36-190h30" id="az"/><path d="M50-231l6-30h32l-6 30H50zM6 0l37-190h31L37 0H6" id="aA"/><path d="M51-54c-9 22 5 41 31 30L79-1C43 14 10-4 19-52l22-115H19l5-23h22l19-43h21l-9 43h35l-4 23H73" id="aB"/><path d="M194-120c59 52 2 134-86 124-53-6-90-18-98-63l31-7c8 30 29 43 70 43 46 0 84-17 71-62-32-43-135-20-137-98-3-89 178-90 191-16l-30 9c-8-48-127-53-127 5 0 53 81 35 115 65" id="aC"/><g id="d"><use transform="matrix(0.04839506149291992,0,0,0.04839506149291992,0,0)" xlink:href="#ar"/><use transform="matrix(0.04839506149291992,0,0,0.04839506149291992,9.679012298583984,0)" xlink:href="#as"/><use transform="matrix(0.04839506149291992,0,0,0.04839506149291992,18.39012336730957,0)" xlink:href="#at"/><use transform="matrix(0.04839506149291992,0,0,0.04839506149291992,28.069135665893555,0)" xlink:href="#au"/><use transform="matrix(0.04839506149291992,0,0,0.04839506149291992,37.74814796447754,0)" xlink:href="#av"/><use transform="matrix(0.04839506149291992,0,0,0.04839506149291992,52.2182713508606,0)" xlink:href="#aw"/><use transform="matrix(0.04839506149291992,0,0,0.04839506149291992,61.89728364944458,0)" xlink:href="#ax"/><use transform="matrix(0.04839506149291992,0,0,0.04839506149291992,66.73678979873657,0)" xlink:href="#ay"/><use transform="matrix(0.04839506149291992,0,0,0.04839506149291992,75.44790086746215,0)" xlink:href="#ar"/><use transform="matrix(0.04839506149291992,0,0,0.04839506149291992,85.12691316604614,0)" xlink:href="#az"/><use transform="matrix(0.04839506149291992,0,0,0.04839506149291992,90.8859254837036,0)" xlink:href="#aA"/><use transform="matrix(0.04839506149291992,0,0,0.04839506149291992,94.70913534164427,0)" xlink:href="#aB"/><use transform="matrix(0.04839506149291992,0,0,0.04839506149291992,99.54864149093626,0)" xlink:href="#aw"/><use transform="matrix(0.04839506149291992,0,0,0.04839506149291992,109.22765378952025,0)" xlink:href="#ax"/><use transform="matrix(0.04839506149291992,0,0,0.04839506149291992,114.06715993881224,0)" xlink:href="#aC"/><use transform="matrix(0.04839506149291992,0,0,0.04839506149291992,125.68197469711302,0)" xlink:href="#ar"/><use transform="matrix(0.04839506149291992,0,0,0.04839506149291992,135.360986995697,0)" xlink:href="#az"/><use transform="matrix(0.04839506149291992,0,0,0.04839506149291992,141.11999931335447,0)" xlink:href="#aA"/><use transform="matrix(0.04839506149291992,0,0,0.04839506149291992,144.94320917129514,0)" xlink:href="#aB"/><use transform="matrix(0.04839506149291992,0,0,0.04839506149291992,149.78271532058713,0)" xlink:href="#aw"/></g><path d="M118-107v75H92v-75H18v-26h74v-75h26v75h74v26h-74" id="aD"/><path d="M205 0l-28-72H64L36 0H1l101-248h38L239 0h-34zm-38-99l-47-123c-12 45-31 82-46 123h93" id="aE"/><path d="M59-47c-2 24 18 29 38 22v24C64 9 27 4 27-40v-127H5v-23h24l9-43h21v43h35v23H59v120" id="aF"/><path d="M115-194c53 0 69 39 70 98 0 66-23 100-70 100C84 3 66-7 56-30L54 0H23l1-261h32v101c10-23 28-34 59-34zm-8 174c40 0 45-34 45-75 0-40-5-75-45-74-42 0-51 32-51 76 0 43 10 73 51 73" id="aG"/><path d="M84 4C-5 8 30-112 23-190h32v120c0 31 7 50 39 49 72-2 45-101 50-169h31l1 190h-30c-1-10 1-25-2-33-11 22-28 36-60 37" id="aH"/><path d="M135-143c-3-34-86-38-87 0 15 53 115 12 119 90S17 21 10-45l28-5c4 36 97 45 98 0-10-56-113-15-118-90-4-57 82-63 122-42 12 7 21 19 24 35" id="aI"/><path d="M33-154v-36h34v36H33zM33 0v-36h34V0H33" id="aJ"/><path d="M-5 72V49h209v23H-5" id="aK"/><path d="M117-194c89-4 53 116 60 194h-32v-121c0-31-8-49-39-48C34-167 62-67 57 0H25l-1-190h30c1 10-1 24 2 32 11-22 29-35 61-36" id="aL"/><path d="M87 75C49 33 22-17 22-94c0-76 28-126 65-167h31c-38 41-64 92-64 168S80 34 118 75H87" id="aM"/><path d="M96-169c-40 0-48 33-48 73s9 75 48 75c24 0 41-14 43-38l32 2c-6 37-31 61-74 61-59 0-76-41-82-99-10-93 101-131 147-64 4 7 5 14 7 22l-32 3c-4-21-16-35-41-35" id="aN"/><path d="M106-169C34-169 62-67 57 0H25v-261h32l-1 103c12-21 28-36 61-36 89 0 53 116 60 194h-32v-121c2-32-8-49-39-48" id="aO"/><path d="M141-36C126-15 110 5 73 4 37 3 15-17 15-53c-1-64 63-63 125-63 3-35-9-54-41-54-24 1-41 7-42 31l-33-3c5-37 33-52 76-52 45 0 72 20 72 64v82c-1 20 7 32 28 27v20c-31 9-61-2-59-35zM48-53c0 20 12 33 32 33 41-3 63-29 60-74-43 2-92-5-92 41" id="aP"/><path d="M179-190L93 31C79 59 56 82 12 73V49c39 6 53-20 64-50L1-190h34L92-34l54-156h33" id="aQ"/><path d="M115-194c55 1 70 41 70 98S169 2 115 4C84 4 66-9 55-30l1 105H24l-1-265h31l2 30c10-21 28-34 59-34zm-8 174c40 0 45-34 45-75s-6-73-45-74c-42 0-51 32-51 76 0 43 10 73 51 73" id="aR"/><path d="M68-38c1 34 0 65-14 84H32c9-13 17-26 17-46H33v-38h35" id="aS"/><g id="e"><use transform="matrix(0.05456790099909276,0,0,0.05456790099909276,0,0)" xlink:href="#aD"/><use transform="matrix(0.05802469135802466,0,0,0.05802469135802466,11.45925920980948,0)" xlink:href="#aE"/><use transform="matrix(0.05802469135802466,0,0,0.05802469135802466,25.385185135735398,0)" xlink:href="#aF"/><use transform="matrix(0.05802469135802466,0,0,0.05802469135802466,31.187654271537866,0)" xlink:href="#aF"/><use transform="matrix(0.05802469135802466,0,0,0.05802469135802466,36.990123407340334,0)" xlink:href="#aq"/><use transform="matrix(0.05802469135802466,0,0,0.05802469135802466,43.89506167894527,0)" xlink:href="#ao"/><use transform="matrix(0.05802469135802466,0,0,0.05802469135802466,48.479012296229214,0)" xlink:href="#aG"/><use transform="matrix(0.05802469135802466,0,0,0.05802469135802466,60.08395056783415,0)" xlink:href="#aH"/><use transform="matrix(0.05802469135802466,0,0,0.05802469135802466,71.68888883943909,0)" xlink:href="#aF"/><use transform="matrix(0.05802469135802466,0,0,0.05802469135802466,77.49135797524156,0)" xlink:href="#ap"/><use transform="matrix(0.05802469135802466,0,0,0.05802469135802466,89.09629624684649,0)" xlink:href="#aI"/><use transform="matrix(0.05802469135802466,0,0,0.05802469135802466,99.54074069129094,0)" xlink:href="#aJ"/><use transform="matrix(0.05456790099909276,0,0,0.05456790099909276,105.3432098270934,0)" xlink:href="#aK"/><use transform="matrix(0.05456790099909276,0,0,0.05456790099909276,116.25679002691197,0)" xlink:href="#aK"/><use transform="matrix(0.05456790099909276,0,0,0.05456790099909276,127.17037022673053,0)" xlink:href="#ao"/><use transform="matrix(0.05456790099909276,0,0,0.05456790099909276,131.48123440565885,0)" xlink:href="#aL"/><use transform="matrix(0.05456790099909276,0,0,0.05456790099909276,142.3948146054774,0)" xlink:href="#ao"/><use transform="matrix(0.05456790099909276,0,0,0.05456790099909276,146.70567878440573,0)" xlink:href="#aF"/><use transform="matrix(0.05456790099909276,0,0,0.05456790099909276,152.16246888431502,0)" xlink:href="#aK"/><use transform="matrix(0.05456790099909276,0,0,0.05456790099909276,163.07604908413356,0)" xlink:href="#aK"/><use transform="matrix(0.05456790099909276,0,0,0.05456790099909276,173.9896292839521,0)" xlink:href="#aM"/><use transform="matrix(0.05456790099909276,0,0,0.05456790099909276,180.48320950284415,0)" xlink:href="#aN"/><use transform="matrix(0.05456790099909276,0,0,0.05456790099909276,190.30543168268085,0)" xlink:href="#aO"/><use transform="matrix(0.05456790099909276,0,0,0.05456790099909276,201.2190118824994,0)" xlink:href="#aP"/><use transform="matrix(0.05456790099909276,0,0,0.05456790099909276,212.13259208231793,0)" xlink:href="#aq"/><use transform="matrix(0.05456790099909276,0,0,0.05456790099909276,218.62617230120998,0)" xlink:href="#aK"/><use transform="matrix(0.05456790099909276,0,0,0.05456790099909276,229.5397525010285,0)" xlink:href="#aF"/><use transform="matrix(0.05456790099909276,0,0,0.05456790099909276,234.99654260093783,0)" xlink:href="#aQ"/><use transform="matrix(0.05456790099909276,0,0,0.05456790099909276,244.81876478077453,0)" xlink:href="#aR"/><use transform="matrix(0.05456790099909276,0,0,0.05456790099909276,255.732344980593,0)" xlink:href="#ap"/><use transform="matrix(0.05456790099909276,0,0,0.05456790099909276,266.6459251804116,0)" xlink:href="#aS"/></g><path d="M141 0L90-78 38 0H4l68-98-65-92h35l48 74 47-74h35l-64 92 68 98h-35" id="aT"/><g id="f"><use transform="matrix(0.05456790099909276,0,0,0.05456790099909276,0,0)" xlink:href="#aT"/><use transform="matrix(0.05456790099909276,0,0,0.05456790099909276,9.822222179836697,0)" xlink:href="#aS"/></g><g id="g"><use transform="matrix(0.05456790099909276,0,0,0.05456790099909276,0,0)" xlink:href="#aQ"/><use transform="matrix(0.05456790099909276,0,0,0.05456790099909276,8.348888852861192,0)" xlink:href="#aS"/></g><g id="h"><use transform="matrix(0.05456790099909276,0,0,0.05456790099909276,0,0)" xlink:href="#aI"/><use transform="matrix(0.05456790099909276,0,0,0.05456790099909276,9.822222179836697,0)" xlink:href="#aN"/><use transform="matrix(0.05456790099909276,0,0,0.05456790099909276,19.644444359673393,0)" xlink:href="#aP"/><use transform="matrix(0.05456790099909276,0,0,0.05456790099909276,30.558024559491948,0)" xlink:href="#am"/><use transform="matrix(0.05456790099909276,0,0,0.05456790099909276,34.868888738420274,0)" xlink:href="#ap"/><use transform="matrix(0.05456790099909276,0,0,0.05456790099909276,45.78246893823883,0)" xlink:href="#aS"/></g><g id="i"><use transform="matrix(0.05456790099909276,0,0,0.05456790099909276,0,0)" xlink:href="#aI"/><use transform="matrix(0.05456790099909276,0,0,0.05456790099909276,9.822222179836697,0)" xlink:href="#aR"/><use transform="matrix(0.05456790099909276,0,0,0.05456790099909276,20.735802379655247,0)" xlink:href="#ap"/><use transform="matrix(0.05456790099909276,0,0,0.05456790099909276,31.6493825794738,0)" xlink:href="#ap"/><use transform="matrix(0.05456790099909276,0,0,0.05456790099909276,42.562962779292356,0)" xlink:href="#an"/><use transform="matrix(0.05456790099909276,0,0,0.05456790099909276,53.47654297911091,0)" xlink:href="#aS"/></g><path d="M210-169c-67 3-38 105-44 169h-31v-121c0-29-5-50-35-48C34-165 62-65 56 0H25l-1-190h30c1 10-1 24 2 32 10-44 99-50 107 0 11-21 27-35 58-36 85-2 47 119 55 194h-31v-121c0-29-5-49-35-48" id="aU"/><g id="j"><use transform="matrix(0.05456790099909276,0,0,0.05456790099909276,0,0)" xlink:href="#aP"/><use transform="matrix(0.05456790099909276,0,0,0.05456790099909276,10.913580199818552,0)" xlink:href="#aU"/><use transform="matrix(0.05456790099909276,0,0,0.05456790099909276,27.22938259854729,0)" xlink:href="#aU"/><use transform="matrix(0.05456790099909276,0,0,0.05456790099909276,43.545184997276024,0)" xlink:href="#al"/><use transform="matrix(0.05456790099909276,0,0,0.05456790099909276,54.45876519709458,0)" xlink:href="#aS"/></g><path d="M177-190C167-65 218 103 67 71c-23-6-38-20-44-43l32-5c15 47 100 32 89-28v-30C133-14 115 1 83 1 29 1 15-40 15-95c0-56 16-97 71-98 29-1 48 16 59 35 1-10 0-23 2-32h30zM94-22c36 0 50-32 50-73 0-42-14-75-50-75-39 0-46 34-46 75s6 73 46 73" id="aV"/><path d="M33-261c38 41 65 92 65 168S71 34 33 75H2C39 34 66-17 66-93S39-220 2-261h31" id="aW"/><g id="k"><use transform="matrix(0.05456790099909276,0,0,0.05456790099909276,0,0)" xlink:href="#aD"/><use transform="matrix(0.05802469135802466,0,0,0.05802469135802466,11.45925920980948,0)" xlink:href="#aE"/><use transform="matrix(0.05802469135802466,0,0,0.05802469135802466,25.385185135735398,0)" xlink:href="#aF"/><use transform="matrix(0.05802469135802466,0,0,0.05802469135802466,31.187654271537866,0)" xlink:href="#aF"/><use transform="matrix(0.05802469135802466,0,0,0.05802469135802466,36.990123407340334,0)" xlink:href="#aq"/><use transform="matrix(0.05802469135802466,0,0,0.05802469135802466,43.89506167894527,0)" xlink:href="#ao"/><use transform="matrix(0.05802469135802466,0,0,0.05802469135802466,48.479012296229214,0)" xlink:href="#aG"/><use transform="matrix(0.05802469135802466,0,0,0.05802469135802466,60.08395056783415,0)" xlink:href="#aH"/><use transform="matrix(0.05802469135802466,0,0,0.05802469135802466,71.68888883943909,0)" xlink:href="#aF"/><use transform="matrix(0.05802469135802466,0,0,0.05802469135802466,77.49135797524156,0)" xlink:href="#ap"/><use transform="matrix(0.05802469135802466,0,0,0.05802469135802466,89.09629624684649,0)" xlink:href="#aI"/><use transform="matrix(0.05802469135802466,0,0,0.05802469135802466,99.54074069129094,0)" xlink:href="#aJ"/><use transform="matrix(0.05456790099909276,0,0,0.05456790099909276,105.3432098270934,0)" xlink:href="#aV"/><use transform="matrix(0.05456790099909276,0,0,0.05456790099909276,116.25679002691197,0)" xlink:href="#aq"/><use transform="matrix(0.05456790099909276,0,0,0.05456790099909276,122.75037024580398,0)" xlink:href="#ap"/><use transform="matrix(0.05456790099909276,0,0,0.05456790099909276,133.66395044562253,0)" xlink:href="#aL"/><use transform="matrix(0.05456790099909276,0,0,0.05456790099909276,144.57753064544107,0)" xlink:href="#aP"/><use transform="matrix(0.05456790099909276,0,0,0.05456790099909276,155.4911108452596,0)" xlink:href="#an"/><use transform="matrix(0.05456790099909276,0,0,0.05456790099909276,166.40469104507815,0)" xlink:href="#ap"/><use transform="matrix(0.05456790099909276,0,0,0.05456790099909276,177.3182712448967,0)" xlink:href="#aI"/><use transform="matrix(0.05456790099909276,0,0,0.05456790099909276,187.1404934247334,0)" xlink:href="#aW"/></g><g id="l"><use transform="matrix(0.05456790099909276,0,0,0.05456790099909276,0,0)" xlink:href="#aD"/><use transform="matrix(0.05802469135802466,0,0,0.05802469135802466,11.45925920980948,0)" xlink:href="#aE"/><use transform="matrix(0.05802469135802466,0,0,0.05802469135802466,25.385185135735398,0)" xlink:href="#aF"/><use transform="matrix(0.05802469135802466,0,0,0.05802469135802466,31.187654271537866,0)" xlink:href="#aF"/><use transform="matrix(0.05802469135802466,0,0,0.05802469135802466,36.990123407340334,0)" xlink:href="#aq"/><use transform="matrix(0.05802469135802466,0,0,0.05802469135802466,43.89506167894527,0)" xlink:href="#ao"/><use transform="matrix(0.05802469135802466,0,0,0.05802469135802466,48.479012296229214,0)" xlink:href="#aG"/><use transform="matrix(0.05802469135802466,0,0,0.05802469135802466,60.08395056783415,0)" xlink:href="#aH"/><use transform="matrix(0.05802469135802466,0,0,0.05802469135802466,71.68888883943909,0)" xlink:href="#aF"/><use transform="matrix(0.05802469135802466,0,0,0.05802469135802466,77.49135797524156,0)" xlink:href="#ap"/><use transform="matrix(0.05802469135802466,0,0,0.05802469135802466,89.09629624684649,0)" xlink:href="#aI"/><use transform="matrix(0.05802469135802466,0,0,0.05802469135802466,99.54074069129094,0)" xlink:href="#aJ"/><use transform="matrix(0.05456790099909276,0,0,0.05456790099909276,105.3432098270934,0)" xlink:href="#aH"/><use transform="matrix(0.05456790099909276,0,0,0.05456790099909276,116.25679002691197,0)" xlink:href="#aR"/><use transform="matrix(0.05456790099909276,0,0,0.05456790099909276,127.17037022673053,0)" xlink:href="#an"/><use transform="matrix(0.05456790099909276,0,0,0.05456790099909276,138.08395042654905,0)" xlink:href="#aP"/><use transform="matrix(0.05456790099909276,0,0,0.05456790099909276,148.9975306263676,0)" xlink:href="#aF"/><use transform="matrix(0.05456790099909276,0,0,0.05456790099909276,154.45432072627688,0)" xlink:href="#ap"/><use transform="matrix(0.05456790099909276,0,0,0.05456790099909276,165.36790092609542,0)" xlink:href="#aM"/><use transform="matrix(0.05456790099909276,0,0,0.05456790099909276,171.86148114498747,0)" xlink:href="#aW"/></g><path d="M108 0H70L1-190h34L89-25l56-165h34" id="aX"/><path d="M101-234c-31-9-42 10-38 44h38v23H63V0H32v-167H5v-23h27c-7-52 17-82 69-68v24" id="aY"/><g id="m"><use transform="matrix(0.05456790099909276,0,0,0.05456790099909276,0,0)" xlink:href="#aD"/><use transform="matrix(0.05802469135802466,0,0,0.05802469135802466,11.45925920980948,0)" xlink:href="#aE"/><use transform="matrix(0.05802469135802466,0,0,0.05802469135802466,25.385185135735398,0)" xlink:href="#aF"/><use transform="matrix(0.05802469135802466,0,0,0.05802469135802466,31.187654271537866,0)" xlink:href="#aF"/><use transform="matrix(0.05802469135802466,0,0,0.05802469135802466,36.990123407340334,0)" xlink:href="#aq"/><use transform="matrix(0.05802469135802466,0,0,0.05802469135802466,43.89506167894527,0)" xlink:href="#ao"/><use transform="matrix(0.05802469135802466,0,0,0.05802469135802466,48.479012296229214,0)" xlink:href="#aG"/><use transform="matrix(0.05802469135802466,0,0,0.05802469135802466,60.08395056783415,0)" xlink:href="#aH"/><use transform="matrix(0.05802469135802466,0,0,0.05802469135802466,71.68888883943909,0)" xlink:href="#aF"/><use transform="matrix(0.05802469135802466,0,0,0.05802469135802466,77.49135797524156,0)" xlink:href="#ap"/><use transform="matrix(0.05802469135802466,0,0,0.05802469135802466,89.09629624684649,0)" xlink:href="#aI"/><use transform="matrix(0.05802469135802466,0,0,0.05802469135802466,99.54074069129094,0)" xlink:href="#aJ"/><use transform="matrix(0.05456790099909276,0,0,0.05456790099909276,105.3432098270934,0)" xlink:href="#aU"/><use transform="matrix(0.05456790099909276,0,0,0.05456790099909276,121.65901222582215,0)" xlink:href="#al"/><use transform="matrix(0.05456790099909276,0,0,0.05456790099909276,132.5725924256407,0)" xlink:href="#aX"/><use transform="matrix(0.05456790099909276,0,0,0.05456790099909276,142.3948146054774,0)" xlink:href="#ap"/><use transform="matrix(0.05456790099909276,0,0,0.05456790099909276,153.30839480529593,0)" xlink:href="#aM"/><use transform="matrix(0.05456790099909276,0,0,0.05456790099909276,159.80197502418798,0)" xlink:href="#aU"/><use transform="matrix(0.05456790099909276,0,0,0.05456790099909276,176.11777742291673,0)" xlink:href="#al"/><use transform="matrix(0.05456790099909276,0,0,0.05456790099909276,187.03135762273527,0)" xlink:href="#aX"/><use transform="matrix(0.05456790099909276,0,0,0.05456790099909276,196.85357980257197,0)" xlink:href="#ao"/><use transform="matrix(0.05456790099909276,0,0,0.05456790099909276,201.1644439815003,0)" xlink:href="#aL"/><use transform="matrix(0.05456790099909276,0,0,0.05456790099909276,212.07802418131885,0)" xlink:href="#aV"/><use transform="matrix(0.05456790099909276,0,0,0.05456790099909276,222.9916043811374,0)" xlink:href="#aK"/><use transform="matrix(0.05456790099909276,0,0,0.05456790099909276,233.9051845809559,0)" xlink:href="#am"/><use transform="matrix(0.05456790099909276,0,0,0.05456790099909276,238.2160487598843,0)" xlink:href="#ap"/><use transform="matrix(0.05456790099909276,0,0,0.05456790099909276,249.12962895970279,0)" xlink:href="#aY"/><use transform="matrix(0.05456790099909276,0,0,0.05456790099909276,254.58641905961213,0)" xlink:href="#aF"/><use transform="matrix(0.05456790099909276,0,0,0.05456790099909276,260.0432091595214,0)" xlink:href="#aS"/></g><g id="n"><use transform="matrix(0.05456790099909276,0,0,0.05456790099909276,0,0)" xlink:href="#aU"/><use transform="matrix(0.05456790099909276,0,0,0.05456790099909276,16.315802398728735,0)" xlink:href="#al"/><use transform="matrix(0.05456790099909276,0,0,0.05456790099909276,27.22938259854729,0)" xlink:href="#aX"/><use transform="matrix(0.05456790099909276,0,0,0.05456790099909276,37.05160477838399,0)" xlink:href="#ao"/><use transform="matrix(0.05456790099909276,0,0,0.05456790099909276,41.362468957312316,0)" xlink:href="#aL"/><use transform="matrix(0.05456790099909276,0,0,0.05456790099909276,52.27604915713087,0)" xlink:href="#aV"/><use transform="matrix(0.05456790099909276,0,0,0.05456790099909276,63.18962935694942,0)" xlink:href="#aK"/><use transform="matrix(0.05456790099909276,0,0,0.05456790099909276,74.10320955676798,0)" xlink:href="#aq"/><use transform="matrix(0.05456790099909276,0,0,0.05456790099909276,80.59678977566001,0)" xlink:href="#ao"/><use transform="matrix(0.05456790099909276,0,0,0.05456790099909276,84.90765395458834,0)" xlink:href="#aV"/><use transform="matrix(0.05456790099909276,0,0,0.05456790099909276,95.8212341544069,0)" xlink:href="#aO"/><use transform="matrix(0.05456790099909276,0,0,0.05456790099909276,106.73481435422545,0)" xlink:href="#aF"/><use transform="matrix(0.05456790099909276,0,0,0.05456790099909276,112.19160445413472,0)" xlink:href="#aW"/></g><g id="o"><use transform="matrix(0.05456790099909276,0,0,0.05456790099909276,0,0)" xlink:href="#aD"/><use transform="matrix(0.05802469135802466,0,0,0.05802469135802466,11.45925920980948,0)" xlink:href="#aE"/><use transform="matrix(0.05802469135802466,0,0,0.05802469135802466,25.385185135735398,0)" xlink:href="#aF"/><use transform="matrix(0.05802469135802466,0,0,0.05802469135802466,31.187654271537866,0)" xlink:href="#aF"/><use transform="matrix(0.05802469135802466,0,0,0.05802469135802466,36.990123407340334,0)" xlink:href="#aq"/><use transform="matrix(0.05802469135802466,0,0,0.05802469135802466,43.89506167894527,0)" xlink:href="#ao"/><use transform="matrix(0.05802469135802466,0,0,0.05802469135802466,48.479012296229214,0)" xlink:href="#aG"/><use transform="matrix(0.05802469135802466,0,0,0.05802469135802466,60.08395056783415,0)" xlink:href="#aH"/><use transform="matrix(0.05802469135802466,0,0,0.05802469135802466,71.68888883943909,0)" xlink:href="#aF"/><use transform="matrix(0.05802469135802466,0,0,0.05802469135802466,77.49135797524156,0)" xlink:href="#ap"/><use transform="matrix(0.05802469135802466,0,0,0.05802469135802466,89.09629624684649,0)" xlink:href="#aI"/><use transform="matrix(0.05802469135802466,0,0,0.05802469135802466,99.54074069129094,0)" xlink:href="#aJ"/><use transform="matrix(0.05456790099909276,0,0,0.05456790099909276,105.3432098270934,0)" xlink:href="#aI"/><use transform="matrix(0.05456790099909276,0,0,0.05456790099909276,115.16543200693012,0)" xlink:href="#aO"/><use transform="matrix(0.05456790099909276,0,0,0.05456790099909276,126.07901220674866,0)" xlink:href="#al"/><use transform="matrix(0.05456790099909276,0,0,0.05456790099909276,136.9925924065672,0)" xlink:href="#al"/><use transform="matrix(0.05456790099909276,0,0,0.05456790099909276,147.90617260638575,0)" xlink:href="#aF"/><use transform="matrix(0.05456790099909276,0,0,0.05456790099909276,153.36296270629504,0)" xlink:href="#aM"/><use transform="matrix(0.05456790099909276,0,0,0.05456790099909276,159.85654292518709,0)" xlink:href="#aW"/></g><g id="p"><use transform="matrix(0.05456790099909276,0,0,0.05456790099909276,0,0)" xlink:href="#aD"/><use transform="matrix(0.05802469135802466,0,0,0.05802469135802466,11.45925920980948,0)" xlink:href="#aE"/><use transform="matrix(0.05802469135802466,0,0,0.05802469135802466,25.385185135735398,0)" xlink:href="#aF"/><use transform="matrix(0.05802469135802466,0,0,0.05802469135802466,31.187654271537866,0)" xlink:href="#aF"/><use transform="matrix(0.05802469135802466,0,0,0.05802469135802466,36.990123407340334,0)" xlink:href="#aq"/><use transform="matrix(0.05802469135802466,0,0,0.05802469135802466,43.89506167894527,0)" xlink:href="#ao"/><use transform="matrix(0.05802469135802466,0,0,0.05802469135802466,48.479012296229214,0)" xlink:href="#aG"/><use transform="matrix(0.05802469135802466,0,0,0.05802469135802466,60.08395056783415,0)" xlink:href="#aH"/><use transform="matrix(0.05802469135802466,0,0,0.05802469135802466,71.68888883943909,0)" xlink:href="#aF"/><use transform="matrix(0.05802469135802466,0,0,0.05802469135802466,77.49135797524156,0)" xlink:href="#ap"/><use transform="matrix(0.05802469135802466,0,0,0.05802469135802466,89.09629624684649,0)" xlink:href="#aI"/><use transform="matrix(0.05802469135802466,0,0,0.05802469135802466,99.54074069129094,0)" xlink:href="#aJ"/><use transform="matrix(0.05456790099909276,0,0,0.05456790099909276,105.3432098270934,0)" xlink:href="#aP"/><use transform="matrix(0.05456790099909276,0,0,0.05456790099909276,116.25679002691197,0)" xlink:href="#ao"/><use transform="matrix(0.05456790099909276,0,0,0.05456790099909276,120.5676542058403,0)" xlink:href="#aM"/><use transform="matrix(0.05456790099909276,0,0,0.05456790099909276,127.0612344247323,0)" xlink:href="#aW"/></g><g id="q"><use transform="matrix(0.05456790099909276,0,0,0.05456790099909276,0,0)" xlink:href="#aD"/><use transform="matrix(0.05802469135802466,0,0,0.05802469135802466,11.45925920980948,0)" xlink:href="#aE"/><use transform="matrix(0.05802469135802466,0,0,0.05802469135802466,25.385185135735398,0)" xlink:href="#aF"/><use transform="matrix(0.05802469135802466,0,0,0.05802469135802466,31.187654271537866,0)" xlink:href="#aF"/><use transform="matrix(0.05802469135802466,0,0,0.05802469135802466,36.990123407340334,0)" xlink:href="#aq"/><use transform="matrix(0.05802469135802466,0,0,0.05802469135802466,43.89506167894527,0)" xlink:href="#ao"/><use transform="matrix(0.05802469135802466,0,0,0.05802469135802466,48.479012296229214,0)" xlink:href="#aG"/><use transform="matrix(0.05802469135802466,0,0,0.05802469135802466,60.08395056783415,0)" xlink:href="#aH"/><use transform="matrix(0.05802469135802466,0,0,0.05802469135802466,71.68888883943909,0)" xlink:href="#aF"/><use transform="matrix(0.05802469135802466,0,0,0.05802469135802466,77.49135797524156,0)" xlink:href="#ap"/><use transform="matrix(0.05802469135802466,0,0,0.05802469135802466,89.09629624684649,0)" xlink:href="#aI"/><use transform="matrix(0.05802469135802466,0,0,0.05802469135802466,99.54074069129094,0)" xlink:href="#aJ"/><use transform="matrix(0.05456790099909276,0,0,0.05456790099909276,105.3432098270934,0)" xlink:href="#aH"/><use transform="matrix(0.05456790099909276,0,0,0.05456790099909276,116.25679002691197,0)" xlink:href="#aR"/><use transform="matrix(0.05456790099909276,0,0,0.05456790099909276,127.17037022673053,0)" xlink:href="#an"/><use transform="matrix(0.05456790099909276,0,0,0.05456790099909276,138.08395042654905,0)" xlink:href="#aP"/><use transform="matrix(0.05456790099909276,0,0,0.05456790099909276,148.9975306263676,0)" xlink:href="#aF"/><use transform="matrix(0.05456790099909276,0,0,0.05456790099909276,154.45432072627688,0)" xlink:href="#ap"/><use transform="matrix(0.05456790099909276,0,0,0.05456790099909276,165.36790092609542,0)" xlink:href="#aK"/><use transform="matrix(0.05456790099909276,0,0,0.05456790099909276,176.28148112591396,0)" xlink:href="#aP"/><use transform="matrix(0.05456790099909276,0,0,0.05456790099909276,187.1950613257325,0)" xlink:href="#aL"/><use transform="matrix(0.05456790099909276,0,0,0.05456790099909276,198.10864152555104,0)" xlink:href="#ao"/><use transform="matrix(0.05456790099909276,0,0,0.05456790099909276,202.41950570447938,0)" xlink:href="#aU"/><use transform="matrix(0.05456790099909276,0,0,0.05456790099909276,218.73530810320813,0)" xlink:href="#aP"/><use transform="matrix(0.05456790099909276,0,0,0.05456790099909276,229.64888830302667,0)" xlink:href="#aF"/><use transform="matrix(0.05456790099909276,0,0,0.05456790099909276,235.10567840293595,0)" xlink:href="#ao"/><use transform="matrix(0.05456790099909276,0,0,0.05456790099909276,239.4165425818643,0)" xlink:href="#al"/><use transform="matrix(0.05456790099909276,0,0,0.05456790099909276,250.33012278168283,0)" xlink:href="#aL"/><use transform="matrix(0.05456790099909276,0,0,0.05456790099909276,261.2437029815014,0)" xlink:href="#aM"/><use transform="matrix(0.05456790099909276,0,0,0.05456790099909276,267.7372832003934,0)" xlink:href="#aW"/></g><path d="M206 0h-36l-40-164L89 0H53L-1-190h32L70-26l43-164h34l41 164 42-164h31" id="aZ"/><g id="r"><use transform="matrix(0.05456790099909276,0,0,0.05456790099909276,0,0)" xlink:href="#aD"/><use transform="matrix(0.05802469135802466,0,0,0.05802469135802466,11.45925920980948,0)" xlink:href="#aE"/><use transform="matrix(0.05802469135802466,0,0,0.05802469135802466,25.385185135735398,0)" xlink:href="#aF"/><use transform="matrix(0.05802469135802466,0,0,0.05802469135802466,31.187654271537866,0)" xlink:href="#aF"/><use transform="matrix(0.05802469135802466,0,0,0.05802469135802466,36.990123407340334,0)" xlink:href="#aq"/><use transform="matrix(0.05802469135802466,0,0,0.05802469135802466,43.89506167894527,0)" xlink:href="#ao"/><use transform="matrix(0.05802469135802466,0,0,0.05802469135802466,48.479012296229214,0)" xlink:href="#aG"/><use transform="matrix(0.05802469135802466,0,0,0.05802469135802466,60.08395056783415,0)" xlink:href="#aH"/><use transform="matrix(0.05802469135802466,0,0,0.05802469135802466,71.68888883943909,0)" xlink:href="#aF"/><use transform="matrix(0.05802469135802466,0,0,0.05802469135802466,77.49135797524156,0)" xlink:href="#ap"/><use transform="matrix(0.05802469135802466,0,0,0.05802469135802466,89.09629624684649,0)" xlink:href="#aI"/><use transform="matrix(0.05802469135802466,0,0,0.05802469135802466,99.54074069129094,0)" xlink:href="#aJ"/><use transform="matrix(0.05456790099909276,0,0,0.05456790099909276,105.3432098270934,0)" xlink:href="#aH"/><use transform="matrix(0.05456790099909276,0,0,0.05456790099909276,116.25679002691197,0)" xlink:href="#aR"/><use transform="matrix(0.05456790099909276,0,0,0.05456790099909276,127.17037022673053,0)" xlink:href="#an"/><use transform="matrix(0.05456790099909276,0,0,0.05456790099909276,138.08395042654905,0)" xlink:href="#aP"/><use transform="matrix(0.05456790099909276,0,0,0.05456790099909276,148.9975306263676,0)" xlink:href="#aF"/><use transform="matrix(0.05456790099909276,0,0,0.05456790099909276,154.45432072627688,0)" xlink:href="#ap"/><use transform="matrix(0.05456790099909276,0,0,0.05456790099909276,165.36790092609542,0)" xlink:href="#aK"/><use transform="matrix(0.05456790099909276,0,0,0.05456790099909276,176.28148112591396,0)" xlink:href="#aP"/><use transform="matrix(0.05456790099909276,0,0,0.05456790099909276,187.1950613257325,0)" xlink:href="#aN"/><use transform="matrix(0.05456790099909276,0,0,0.05456790099909276,197.0172835055692,0)" xlink:href="#aF"/><use transform="matrix(0.05456790099909276,0,0,0.05456790099909276,202.47407360547848,0)" xlink:href="#ao"/><use transform="matrix(0.05456790099909276,0,0,0.05456790099909276,206.78493778440682,0)" xlink:href="#al"/><use transform="matrix(0.05456790099909276,0,0,0.05456790099909276,217.69851798422536,0)" xlink:href="#aL"/><use transform="matrix(0.05456790099909276,0,0,0.05456790099909276,228.6120981840439,0)" xlink:href="#aM"/><use transform="matrix(0.05456790099909276,0,0,0.05456790099909276,235.10567840293595,0)" xlink:href="#aL"/><use transform="matrix(0.05456790099909276,0,0,0.05456790099909276,246.01925860275452,0)" xlink:href="#ap"/><use transform="matrix(0.05456790099909276,0,0,0.05456790099909276,256.93283880257303,0)" xlink:href="#aZ"/><use transform="matrix(0.05456790099909276,0,0,0.05456790099909276,271.06592516133804,0)" xlink:href="#aK"/><use transform="matrix(0.05456790099909276,0,0,0.05456790099909276,281.9795053611566,0)" xlink:href="#aP"/><use transform="matrix(0.05456790099909276,0,0,0.05456790099909276,292.8930855609752,0)" xlink:href="#aN"/><use transform="matrix(0.05456790099909276,0,0,0.05456790099909276,302.71530774081185,0)" xlink:href="#aF"/><use transform="matrix(0.05456790099909276,0,0,0.05456790099909276,308.1720978407211,0)" xlink:href="#ao"/><use transform="matrix(0.05456790099909276,0,0,0.05456790099909276,312.48296201964945,0)" xlink:href="#al"/><use transform="matrix(0.05456790099909276,0,0,0.05456790099909276,323.396542219468,0)" xlink:href="#aL"/><use transform="matrix(0.05456790099909276,0,0,0.05456790099909276,334.3101224192866,0)" xlink:href="#aW"/></g><g id="s"><use transform="matrix(0.05,0,0,0.05,0,0)" xlink:href="#ag"/><use transform="matrix(0.05,0,0,0.05,12.950000000000001,0)" xlink:href="#ah"/><use transform="matrix(0.05,0,0,0.05,16.900000000000002,0)" xlink:href="#ai"/><use transform="matrix(0.05,0,0,0.05,26.900000000000002,0)" xlink:href="#aj"/><use transform="matrix(0.05,0,0,0.05,35.900000000000006,0)" xlink:href="#aj"/></g><path fill="#333" d="M266 0h-40l-56-210L115 0H75L2-248h35L96-30l15-64 43-154h32l59 218 59-218h35" id="ba"/><path fill="#333" d="M100-194c62-1 85 37 85 99 1 63-27 99-86 99S16-35 15-95c0-66 28-99 85-99zM99-20c44 1 53-31 53-75 0-43-8-75-51-75s-53 32-53 75 10 74 51 75" id="bb"/><path fill="#333" d="M114-163C36-179 61-72 57 0H25l-1-190h30c1 12-1 29 2 39 6-27 23-49 58-41v29" id="bc"/><path fill="#333" d="M85-194c31 0 48 13 60 33l-1-100h32l1 261h-30c-2-10 0-23-3-31C134-8 116 4 85 4 32 4 16-35 15-94c0-66 23-100 70-100zm9 24c-40 0-46 34-46 75 0 40 6 74 45 74 42 0 51-32 51-76 0-42-9-74-50-73" id="bd"/><g id="t"><use transform="matrix(0.05,0,0,0.05,0,0)" xlink:href="#ba"/><use transform="matrix(0.05,0,0,0.05,16.599999999999998,0)" xlink:href="#bb"/><use transform="matrix(0.05,0,0,0.05,26.599999999999994,0)" xlink:href="#bc"/><use transform="matrix(0.05,0,0,0.05,32.55,0)" xlink:href="#ah"/><use transform="matrix(0.05,0,0,0.05,36.5,0)" xlink:href="#bd"/></g><g id="u"><use transform="matrix(0.05555555555555555,0,0,0.05555555555555555,0,0)" xlink:href="#aD"/><use transform="matrix(0.05555555555555555,0,0,0.05555555555555555,11.666666666666666,0)" xlink:href="#aE"/><use transform="matrix(0.05555555555555555,0,0,0.05555555555555555,25,0)" xlink:href="#aF"/><use transform="matrix(0.05555555555555555,0,0,0.05555555555555555,30.55555555555556,0)" xlink:href="#aF"/><use transform="matrix(0.05555555555555555,0,0,0.05555555555555555,36.111111111111114,0)" xlink:href="#aq"/><use transform="matrix(0.05555555555555555,0,0,0.05555555555555555,42.72222222222223,0)" xlink:href="#ao"/><use transform="matrix(0.05555555555555555,0,0,0.05555555555555555,47.111111111111114,0)" xlink:href="#aG"/><use transform="matrix(0.05555555555555555,0,0,0.05555555555555555,58.22222222222223,0)" xlink:href="#aH"/><use transform="matrix(0.05555555555555555,0,0,0.05555555555555555,69.33333333333334,0)" xlink:href="#aF"/><use transform="matrix(0.05555555555555555,0,0,0.05555555555555555,74.8888888888889,0)" xlink:href="#ap"/><use transform="matrix(0.05555555555555555,0,0,0.05555555555555555,86.00000000000001,0)" xlink:href="#aI"/><use transform="matrix(0.05555555555555555,0,0,0.05555555555555555,96.00000000000001,0)" xlink:href="#aJ"/><use transform="matrix(0.05555555555555555,0,0,0.05555555555555555,101.55555555555557,0)" xlink:href="#aR"/><use transform="matrix(0.05555555555555555,0,0,0.05555555555555555,112.66666666666669,0)" xlink:href="#aq"/><use transform="matrix(0.05555555555555555,0,0,0.05555555555555555,119.2777777777778,0)" xlink:href="#al"/><use transform="matrix(0.05555555555555555,0,0,0.05555555555555555,130.3888888888889,0)" xlink:href="#aN"/><use transform="matrix(0.05555555555555555,0,0,0.05555555555555555,140.3888888888889,0)" xlink:href="#ap"/><use transform="matrix(0.05555555555555555,0,0,0.05555555555555555,151.50000000000003,0)" xlink:href="#aI"/><use transform="matrix(0.05555555555555555,0,0,0.05555555555555555,161.50000000000003,0)" xlink:href="#aI"/><use transform="matrix(0.05555555555555555,0,0,0.05555555555555555,171.50000000000003,0)" xlink:href="#aK"/><use transform="matrix(0.05555555555555555,0,0,0.05555555555555555,182.61111111111114,0)" xlink:href="#an"/><use transform="matrix(0.05555555555555555,0,0,0.05555555555555555,193.72222222222226,0)" xlink:href="#aP"/><use transform="matrix(0.05555555555555555,0,0,0.05555555555555555,204.83333333333337,0)" xlink:href="#aF"/><use transform="matrix(0.05555555555555555,0,0,0.05555555555555555,210.3888888888889,0)" xlink:href="#aP"/><use transform="matrix(0.05555555555555555,0,0,0.05555555555555555,221.50000000000003,0)" xlink:href="#aM"/><use transform="matrix(0.05555555555555555,0,0,0.05555555555555555,228.11111111111114,0)" xlink:href="#aI"/><use transform="matrix(0.05555555555555555,0,0,0.05555555555555555,238.11111111111114,0)" xlink:href="#ap"/><use transform="matrix(0.05555555555555555,0,0,0.05555555555555555,249.22222222222226,0)" xlink:href="#am"/><use transform="matrix(0.05555555555555555,0,0,0.05555555555555555,253.61111111111114,0)" xlink:href="#aY"/><use transform="matrix(0.05555555555555555,0,0,0.05555555555555555,259.1666666666667,0)" xlink:href="#aS"/></g><g id="v"><use transform="matrix(0.05555555555555555,0,0,0.05555555555555555,0,0)" xlink:href="#an"/><use transform="matrix(0.05555555555555555,0,0,0.05555555555555555,11.11111111111111,0)" xlink:href="#aP"/><use transform="matrix(0.05555555555555555,0,0,0.05555555555555555,22.22222222222222,0)" xlink:href="#aF"/><use transform="matrix(0.05555555555555555,0,0,0.05555555555555555,27.77777777777778,0)" xlink:href="#aP"/><use transform="matrix(0.05555555555555555,0,0,0.05555555555555555,38.888888888888886,0)" xlink:href="#aW"/><use transform="matrix(0.05555555555555555,0,0,0.05555555555555555,45.5,0)" xlink:href="#aJ"/></g><g id="w"><use transform="matrix(0.05555555555555555,0,0,0.05555555555555555,0,0)" xlink:href="#aD"/><use transform="matrix(0.05555555555555555,0,0,0.05555555555555555,11.666666666666666,0)" xlink:href="#aE"/><use transform="matrix(0.05555555555555555,0,0,0.05555555555555555,25,0)" xlink:href="#aF"/><use transform="matrix(0.05555555555555555,0,0,0.05555555555555555,30.55555555555556,0)" xlink:href="#aF"/><use transform="matrix(0.05555555555555555,0,0,0.05555555555555555,36.111111111111114,0)" xlink:href="#aq"/><use transform="matrix(0.05555555555555555,0,0,0.05555555555555555,42.72222222222223,0)" xlink:href="#ao"/><use transform="matrix(0.05555555555555555,0,0,0.05555555555555555,47.111111111111114,0)" xlink:href="#aG"/><use transform="matrix(0.05555555555555555,0,0,0.05555555555555555,58.22222222222223,0)" xlink:href="#aH"/><use transform="matrix(0.05555555555555555,0,0,0.05555555555555555,69.33333333333334,0)" xlink:href="#aF"/><use transform="matrix(0.05555555555555555,0,0,0.05555555555555555,74.8888888888889,0)" xlink:href="#ap"/><use transform="matrix(0.05555555555555555,0,0,0.05555555555555555,86.00000000000001,0)" xlink:href="#aI"/><use transform="matrix(0.05555555555555555,0,0,0.05555555555555555,96.00000000000001,0)" xlink:href="#aJ"/><use transform="matrix(0.05555555555555555,0,0,0.05555555555555555,101.55555555555557,0)" xlink:href="#an"/><use transform="matrix(0.05555555555555555,0,0,0.05555555555555555,112.66666666666669,0)" xlink:href="#aq"/><use transform="matrix(0.05555555555555555,0,0,0.05555555555555555,119.2777777777778,0)" xlink:href="#aP"/><use transform="matrix(0.05555555555555555,0,0,0.05555555555555555,130.3888888888889,0)" xlink:href="#aZ"/><use transform="matrix(0.05555555555555555,0,0,0.05555555555555555,144.7777777777778,0)" xlink:href="#aM"/><use transform="matrix(0.05555555555555555,0,0,0.05555555555555555,151.3888888888889,0)" xlink:href="#aI"/><use transform="matrix(0.05555555555555555,0,0,0.05555555555555555,161.3888888888889,0)" xlink:href="#ap"/><use transform="matrix(0.05555555555555555,0,0,0.05555555555555555,172.50000000000003,0)" xlink:href="#am"/><use transform="matrix(0.05555555555555555,0,0,0.05555555555555555,176.8888888888889,0)" xlink:href="#aY"/><use transform="matrix(0.05555555555555555,0,0,0.05555555555555555,182.44444444444446,0)" xlink:href="#aW"/><use transform="matrix(0.05555555555555555,0,0,0.05555555555555555,189.05555555555557,0)" xlink:href="#aJ"/></g><path d="M212-179c-10-28-35-45-73-45-59 0-87 40-87 99 0 60 29 101 89 101 43 0 62-24 78-52l27 14C228-24 195 4 139 4 59 4 22-46 18-125c-6-104 99-153 187-111 19 9 31 26 39 46" id="be"/><g id="x"><use transform="matrix(0.05,0,0,0.05,0,0)" xlink:href="#be"/><use transform="matrix(0.05,0,0,0.05,12.950000000000001,0)" xlink:href="#am"/><use transform="matrix(0.05,0,0,0.05,16.900000000000002,0)" xlink:href="#aP"/><use transform="matrix(0.05,0,0,0.05,26.900000000000002,0)" xlink:href="#aI"/><use transform="matrix(0.05,0,0,0.05,35.900000000000006,0)" xlink:href="#aI"/></g><path d="M266 0h-40l-56-210L115 0H75L2-248h35L96-30l15-64 43-154h32l59 218 59-218h35" id="bf"/><g id="y"><use transform="matrix(0.04839506149291992,0,0,0.04839506149291992,0,0)" xlink:href="#bf"/><use transform="matrix(0.04839506149291992,0,0,0.04839506149291992,15.776790046691898,0)" xlink:href="#aP"/><use transform="matrix(0.04839506149291992,0,0,0.04839506149291992,25.45580234527588,0)" xlink:href="#aF"/><use transform="matrix(0.04839506149291992,0,0,0.04839506149291992,30.295308494567873,0)" xlink:href="#ap"/><use transform="matrix(0.04839506149291992,0,0,0.04839506149291992,39.97432079315186,0)" xlink:href="#aq"/></g><g id="A"><use transform="matrix(0.04839506149291992,0,0,0.04839506149291992,0,0)" xlink:href="#ar"/><use transform="matrix(0.04839506149291992,0,0,0.04839506149291992,9.679012298583984,0)" xlink:href="#as"/><use transform="matrix(0.04839506149291992,0,0,0.04839506149291992,18.39012336730957,0)" xlink:href="#at"/><use transform="matrix(0.04839506149291992,0,0,0.04839506149291992,28.069135665893555,0)" xlink:href="#au"/><use transform="matrix(0.04839506149291992,0,0,0.04839506149291992,37.74814796447754,0)" xlink:href="#av"/><use transform="matrix(0.04839506149291992,0,0,0.04839506149291992,52.2182713508606,0)" xlink:href="#aw"/><use transform="matrix(0.04839506149291992,0,0,0.04839506149291992,61.89728364944458,0)" xlink:href="#ax"/><use transform="matrix(0.04839506149291992,0,0,0.04839506149291992,66.73678979873657,0)" xlink:href="#ay"/><use transform="matrix(0.04839506149291992,0,0,0.04839506149291992,75.44790086746215,0)" xlink:href="#ar"/><use transform="matrix(0.04839506149291992,0,0,0.04839506149291992,85.12691316604614,0)" xlink:href="#az"/><use transform="matrix(0.04839506149291992,0,0,0.04839506149291992,90.8859254837036,0)" xlink:href="#aA"/><use transform="matrix(0.04839506149291992,0,0,0.04839506149291992,94.70913534164427,0)" xlink:href="#aB"/><use transform="matrix(0.04839506149291992,0,0,0.04839506149291992,99.54864149093626,0)" xlink:href="#aw"/><use transform="matrix(0.04839506149291992,0,0,0.04839506149291992,109.22765378952025,0)" xlink:href="#ax"/><use transform="matrix(0.04839506149291992,0,0,0.04839506149291992,114.06715993881224,0)" xlink:href="#aC"/><use transform="matrix(0.04839506149291992,0,0,0.04839506149291992,125.68197469711302,0)" xlink:href="#ar"/><use transform="matrix(0.04839506149291992,0,0,0.04839506149291992,135.360986995697,0)" xlink:href="#az"/><use transform="matrix(0.04839506149291992,0,0,0.04839506149291992,141.11999931335447,0)" xlink:href="#aA"/><use transform="matrix(0.04839506149291992,0,0,0.04839506149291992,144.94320917129514,0)" xlink:href="#aB"/><use transform="matrix(0.04839506149291992,0,0,0.04839506149291992,149.78271532058713,0)" xlink:href="#aw"/></g><g id="B"><use transform="matrix(0.05555555555555555,0,0,0.05555555555555555,0,0)" xlink:href="#aD"/><use transform="matrix(0.05555555555555555,0,0,0.05555555555555555,11.666666666666666,0)" xlink:href="#aE"/><use transform="matrix(0.05555555555555555,0,0,0.05555555555555555,25,0)" xlink:href="#aF"/><use transform="matrix(0.05555555555555555,0,0,0.05555555555555555,30.55555555555556,0)" xlink:href="#aF"/><use transform="matrix(0.05555555555555555,0,0,0.05555555555555555,36.111111111111114,0)" xlink:href="#aq"/><use transform="matrix(0.05555555555555555,0,0,0.05555555555555555,42.72222222222223,0)" xlink:href="#ao"/><use transform="matrix(0.05555555555555555,0,0,0.05555555555555555,47.111111111111114,0)" xlink:href="#aG"/><use transform="matrix(0.05555555555555555,0,0,0.05555555555555555,58.22222222222223,0)" xlink:href="#aH"/><use transform="matrix(0.05555555555555555,0,0,0.05555555555555555,69.33333333333334,0)" xlink:href="#aF"/><use transform="matrix(0.05555555555555555,0,0,0.05555555555555555,74.8888888888889,0)" xlink:href="#ap"/><use transform="matrix(0.05555555555555555,0,0,0.05555555555555555,86.00000000000001,0)" xlink:href="#aI"/><use transform="matrix(0.05555555555555555,0,0,0.05555555555555555,96.00000000000001,0)" xlink:href="#aJ"/><use transform="matrix(0.05555555555555555,0,0,0.05555555555555555,101.55555555555557,0)" xlink:href="#aK"/><use transform="matrix(0.05555555555555555,0,0,0.05555555555555555,112.66666666666669,0)" xlink:href="#aK"/><use transform="matrix(0.05555555555555555,0,0,0.05555555555555555,123.7777777777778,0)" xlink:href="#ao"/><use transform="matrix(0.05555555555555555,0,0,0.05555555555555555,128.16666666666669,0)" xlink:href="#aL"/><use transform="matrix(0.05555555555555555,0,0,0.05555555555555555,139.2777777777778,0)" xlink:href="#ao"/><use transform="matrix(0.05555555555555555,0,0,0.05555555555555555,143.66666666666669,0)" xlink:href="#aF"/><use transform="matrix(0.05555555555555555,0,0,0.05555555555555555,149.22222222222223,0)" xlink:href="#aK"/><use transform="matrix(0.05555555555555555,0,0,0.05555555555555555,160.33333333333334,0)" xlink:href="#aK"/><use transform="matrix(0.05555555555555555,0,0,0.05555555555555555,171.44444444444446,0)" xlink:href="#aM"/><use transform="matrix(0.05555555555555555,0,0,0.05555555555555555,178.05555555555557,0)" xlink:href="#aI"/><use transform="matrix(0.05555555555555555,0,0,0.05555555555555555,188.05555555555557,0)" xlink:href="#ap"/><use transform="matrix(0.05555555555555555,0,0,0.05555555555555555,199.16666666666669,0)" xlink:href="#am"/><use transform="matrix(0.05555555555555555,0,0,0.05555555555555555,203.55555555555557,0)" xlink:href="#aY"/><use transform="matrix(0.05555555555555555,0,0,0.05555555555555555,209.11111111111111,0)" xlink:href="#aS"/></g><g id="C"><use transform="matrix(0.05555555555555555,0,0,0.05555555555555555,0,0)" xlink:href="#ao"/><use transform="matrix(0.05555555555555555,0,0,0.05555555555555555,4.388888888888888,0)" xlink:href="#aU"/><use transform="matrix(0.05555555555555555,0,0,0.05555555555555555,21,0)" xlink:href="#aV"/><use transform="matrix(0.05555555555555555,0,0,0.05555555555555555,32.111111111111114,0)" xlink:href="#aS"/></g><g id="D"><use transform="matrix(0.05555555555555555,0,0,0.05555555555555555,0,0)" xlink:href="#aT"/><use transform="matrix(0.05555555555555555,0,0,0.05555555555555555,10,0)" xlink:href="#aS"/></g><g id="E"><use transform="matrix(0.05555555555555555,0,0,0.05555555555555555,0,0)" xlink:href="#aQ"/><use transform="matrix(0.05555555555555555,0,0,0.05555555555555555,10,0)" xlink:href="#aW"/></g><g id="F"><use transform="matrix(0.05555555555555555,0,0,0.05555555555555555,0,0)" xlink:href="#aD"/><use transform="matrix(0.05555555555555555,0,0,0.05555555555555555,11.666666666666666,0)" xlink:href="#aE"/><use transform="matrix(0.05555555555555555,0,0,0.05555555555555555,25,0)" xlink:href="#aF"/><use transform="matrix(0.05555555555555555,0,0,0.05555555555555555,30.55555555555556,0)" xlink:href="#aF"/><use transform="matrix(0.05555555555555555,0,0,0.05555555555555555,36.111111111111114,0)" xlink:href="#aq"/><use transform="matrix(0.05555555555555555,0,0,0.05555555555555555,42.72222222222223,0)" xlink:href="#ao"/><use transform="matrix(0.05555555555555555,0,0,0.05555555555555555,47.111111111111114,0)" xlink:href="#aG"/><use transform="matrix(0.05555555555555555,0,0,0.05555555555555555,58.22222222222223,0)" xlink:href="#aH"/><use transform="matrix(0.05555555555555555,0,0,0.05555555555555555,69.33333333333334,0)" xlink:href="#aF"/><use transform="matrix(0.05555555555555555,0,0,0.05555555555555555,74.8888888888889,0)" xlink:href="#ap"/><use transform="matrix(0.05555555555555555,0,0,0.05555555555555555,86.00000000000001,0)" xlink:href="#aI"/><use transform="matrix(0.05555555555555555,0,0,0.05555555555555555,96.00000000000001,0)" xlink:href="#aJ"/><use transform="matrix(0.05555555555555555,0,0,0.05555555555555555,101.55555555555557,0)" xlink:href="#aH"/><use transform="matrix(0.05555555555555555,0,0,0.05555555555555555,112.66666666666669,0)" xlink:href="#aR"/><use transform="matrix(0.05555555555555555,0,0,0.05555555555555555,123.7777777777778,0)" xlink:href="#an"/><use transform="matrix(0.05555555555555555,0,0,0.05555555555555555,134.8888888888889,0)" xlink:href="#aP"/><use transform="matrix(0.05555555555555555,0,0,0.05555555555555555,146.00000000000003,0)" xlink:href="#aF"/><use transform="matrix(0.05555555555555555,0,0,0.05555555555555555,151.55555555555557,0)" xlink:href="#ap"/><use transform="matrix(0.05555555555555555,0,0,0.05555555555555555,162.66666666666669,0)" xlink:href="#aM"/><use transform="matrix(0.05555555555555555,0,0,0.05555555555555555,169.2777777777778,0)" xlink:href="#aI"/><use transform="matrix(0.05555555555555555,0,0,0.05555555555555555,179.2777777777778,0)" xlink:href="#ap"/><use transform="matrix(0.05555555555555555,0,0,0.05555555555555555,190.3888888888889,0)" xlink:href="#am"/><use transform="matrix(0.05555555555555555,0,0,0.05555555555555555,194.7777777777778,0)" xlink:href="#aY"/><use transform="matrix(0.05555555555555555,0,0,0.05555555555555555,200.33333333333334,0)" xlink:href="#aW"/></g><path d="M30 0v-248h187v28H63v79h144v27H63v87h162V0H30" id="bg"/><g id="H"><use transform="matrix(0.04839506149291992,0,0,0.04839506149291992,0,0)" xlink:href="#bg"/><use transform="matrix(0.04839506149291992,0,0,0.04839506149291992,11.614814758300781,0)" xlink:href="#aT"/><use transform="matrix(0.04839506149291992,0,0,0.04839506149291992,20.325925827026367,0)" xlink:href="#ao"/><use transform="matrix(0.04839506149291992,0,0,0.04839506149291992,24.149135684967042,0)" xlink:href="#aF"/></g><path d="M33 0v-248h34V0H33" id="bh"/><path d="M160-131c35 5 61 23 61 61C221 17 115-2 30 0v-248c76 3 177-17 177 60 0 33-19 50-47 57zm-97-11c50-1 110 9 110-42 0-47-63-36-110-37v79zm0 115c55-2 124 14 124-45 0-56-70-42-124-44v89" id="bi"/><g id="I"><use transform="matrix(0.04839506149291992,0,0,0.04839506149291992,0,0)" xlink:href="#bh"/><use transform="matrix(0.04839506149291992,0,0,0.04839506149291992,4.839506149291992,0)" xlink:href="#aF"/><use transform="matrix(0.04839506149291992,0,0,0.04839506149291992,9.679012298583984,0)" xlink:href="#ap"/><use transform="matrix(0.04839506149291992,0,0,0.04839506149291992,19.35802459716797,0)" xlink:href="#aU"/><use transform="matrix(0.04839506149291992,0,0,0.04839506149291992,33.82814798355103,0)" xlink:href="#bi"/><use transform="matrix(0.04839506149291992,0,0,0.04839506149291992,45.44296274185181,0)" xlink:href="#al"/><use transform="matrix(0.04839506149291992,0,0,0.04839506149291992,55.12197504043579,0)" xlink:href="#aT"/></g><g id="J"><use transform="matrix(0.05555555555555555,0,0,0.05555555555555555,0,0)" xlink:href="#aD"/><use transform="matrix(0.05555555555555555,0,0,0.05555555555555555,11.666666666666666,0)" xlink:href="#aE"/><use transform="matrix(0.05555555555555555,0,0,0.05555555555555555,25,0)" xlink:href="#aF"/><use transform="matrix(0.05555555555555555,0,0,0.05555555555555555,30.55555555555556,0)" xlink:href="#aF"/><use transform="matrix(0.05555555555555555,0,0,0.05555555555555555,36.111111111111114,0)" xlink:href="#aq"/><use transform="matrix(0.05555555555555555,0,0,0.05555555555555555,42.72222222222223,0)" xlink:href="#ao"/><use transform="matrix(0.05555555555555555,0,0,0.05555555555555555,47.111111111111114,0)" xlink:href="#aG"/><use transform="matrix(0.05555555555555555,0,0,0.05555555555555555,58.22222222222223,0)" xlink:href="#aH"/><use transform="matrix(0.05555555555555555,0,0,0.05555555555555555,69.33333333333334,0)" xlink:href="#aF"/><use transform="matrix(0.05555555555555555,0,0,0.05555555555555555,74.8888888888889,0)" xlink:href="#ap"/><use transform="matrix(0.05555555555555555,0,0,0.05555555555555555,86.00000000000001,0)" xlink:href="#aI"/><use transform="matrix(0.05555555555555555,0,0,0.05555555555555555,96.00000000000001,0)" xlink:href="#aJ"/><use transform="matrix(0.05555555555555555,0,0,0.05555555555555555,101.55555555555557,0)" xlink:href="#aK"/><use transform="matrix(0.05555555555555555,0,0,0.05555555555555555,112.66666666666669,0)" xlink:href="#aK"/><use transform="matrix(0.05555555555555555,0,0,0.05555555555555555,123.7777777777778,0)" xlink:href="#ao"/><use transform="matrix(0.05555555555555555,0,0,0.05555555555555555,128.16666666666669,0)" xlink:href="#aL"/><use transform="matrix(0.05555555555555555,0,0,0.05555555555555555,139.2777777777778,0)" xlink:href="#ao"/><use transform="matrix(0.05555555555555555,0,0,0.05555555555555555,143.66666666666669,0)" xlink:href="#aF"/><use transform="matrix(0.05555555555555555,0,0,0.05555555555555555,149.22222222222223,0)" xlink:href="#aK"/><use transform="matrix(0.05555555555555555,0,0,0.05555555555555555,160.33333333333334,0)" xlink:href="#aK"/><use transform="matrix(0.05555555555555555,0,0,0.05555555555555555,171.44444444444446,0)" xlink:href="#aM"/><use transform="matrix(0.05555555555555555,0,0,0.05555555555555555,178.05555555555557,0)" xlink:href="#aI"/><use transform="matrix(0.05555555555555555,0,0,0.05555555555555555,188.05555555555557,0)" xlink:href="#ap"/><use transform="matrix(0.05555555555555555,0,0,0.05555555555555555,199.16666666666669,0)" xlink:href="#am"/><use transform="matrix(0.05555555555555555,0,0,0.05555555555555555,203.55555555555557,0)" xlink:href="#aY"/><use transform="matrix(0.05555555555555555,0,0,0.05555555555555555,209.11111111111111,0)" xlink:href="#aS"/></g><g id="K"><use transform="matrix(0.05555555555555555,0,0,0.05555555555555555,0,0)" xlink:href="#ao"/><use transform="matrix(0.05555555555555555,0,0,0.05555555555555555,4.388888888888888,0)" xlink:href="#aF"/><use transform="matrix(0.05555555555555555,0,0,0.05555555555555555,9.944444444444443,0)" xlink:href="#ap"/><use transform="matrix(0.05555555555555555,0,0,0.05555555555555555,21.055555555555554,0)" xlink:href="#aU"/><use transform="matrix(0.05555555555555555,0,0,0.05555555555555555,37.666666666666664,0)" xlink:href="#aK"/><use transform="matrix(0.05555555555555555,0,0,0.05555555555555555,48.77777777777777,0)" xlink:href="#aF"/><use transform="matrix(0.05555555555555555,0,0,0.05555555555555555,54.33333333333333,0)" xlink:href="#aQ"/><use transform="matrix(0.05555555555555555,0,0,0.05555555555555555,64.33333333333333,0)" xlink:href="#aR"/><use transform="matrix(0.05555555555555555,0,0,0.05555555555555555,75.44444444444444,0)" xlink:href="#ap"/><use transform="matrix(0.05555555555555555,0,0,0.05555555555555555,86.55555555555556,0)" xlink:href="#aS"/></g><path d="M30-248c118-7 216 8 213 122C240-48 200 0 122 0H30v-248zM63-27c89 8 146-16 146-99s-60-101-146-95v194" id="bj"/><g id="L"><use transform="matrix(0.04839506149291992,0,0,0.04839506149291992,0,0)" xlink:href="#bj"/><use transform="matrix(0.04839506149291992,0,0,0.04839506149291992,12.53432092666626,0)" xlink:href="#ap"/><use transform="matrix(0.04839506149291992,0,0,0.04839506149291992,22.213333225250246,0)" xlink:href="#aN"/><use transform="matrix(0.04839506149291992,0,0,0.04839506149291992,30.92444429397583,0)" xlink:href="#al"/><use transform="matrix(0.04839506149291992,0,0,0.04839506149291992,40.603456592559816,0)" xlink:href="#aq"/><use transform="matrix(0.04839506149291992,0,0,0.04839506149291992,46.36246891021729,0)" xlink:href="#aP"/><use transform="matrix(0.04839506149291992,0,0,0.04839506149291992,56.04148120880127,0)" xlink:href="#aF"/><use transform="matrix(0.04839506149291992,0,0,0.04839506149291992,60.880987358093265,0)" xlink:href="#ao"/><use transform="matrix(0.04839506149291992,0,0,0.04839506149291992,64.70419721603393,0)" xlink:href="#al"/><use transform="matrix(0.04839506149291992,0,0,0.04839506149291992,74.38320951461792,0)" xlink:href="#aL"/></g><path d="M197 0v-115H63V0H30v-248h33v105h134v-105h34V0h-34" id="bk"/><g id="M"><use transform="matrix(0.04839506149291992,0,0,0.04839506149291992,0,0)" xlink:href="#bk"/><use transform="matrix(0.04839506149291992,0,0,0.04839506149291992,12.53432092666626,0)" xlink:href="#ap"/><use transform="matrix(0.04839506149291992,0,0,0.04839506149291992,22.213333225250246,0)" xlink:href="#aP"/><use transform="matrix(0.04839506149291992,0,0,0.04839506149291992,31.89234552383423,0)" xlink:href="#am"/><use transform="matrix(0.04839506149291992,0,0,0.04839506149291992,35.715555381774905,0)" xlink:href="#aF"/><use transform="matrix(0.04839506149291992,0,0,0.04839506149291992,40.5550615310669,0)" xlink:href="#aO"/><use transform="matrix(0.04839506149291992,0,0,0.04839506149291992,50.23407382965088,0)" xlink:href="#bi"/><use transform="matrix(0.04839506149291992,0,0,0.04839506149291992,61.84888858795166,0)" xlink:href="#aP"/><use transform="matrix(0.04839506149291992,0,0,0.04839506149291992,71.52790088653565,0)" xlink:href="#aq"/></g><g id="N"><use transform="matrix(0.05555555555555555,0,0,0.05555555555555555,0,0)" xlink:href="#aD"/><use transform="matrix(0.05555555555555555,0,0,0.05555555555555555,11.666666666666666,0)" xlink:href="#aE"/><use transform="matrix(0.05555555555555555,0,0,0.05555555555555555,25,0)" xlink:href="#aF"/><use transform="matrix(0.05555555555555555,0,0,0.05555555555555555,30.55555555555556,0)" xlink:href="#aF"/><use transform="matrix(0.05555555555555555,0,0,0.05555555555555555,36.111111111111114,0)" xlink:href="#aq"/><use transform="matrix(0.05555555555555555,0,0,0.05555555555555555,42.72222222222223,0)" xlink:href="#ao"/><use transform="matrix(0.05555555555555555,0,0,0.05555555555555555,47.111111111111114,0)" xlink:href="#aG"/><use transform="matrix(0.05555555555555555,0,0,0.05555555555555555,58.22222222222223,0)" xlink:href="#aH"/><use transform="matrix(0.05555555555555555,0,0,0.05555555555555555,69.33333333333334,0)" xlink:href="#aF"/><use transform="matrix(0.05555555555555555,0,0,0.05555555555555555,74.8888888888889,0)" xlink:href="#ap"/><use transform="matrix(0.05555555555555555,0,0,0.05555555555555555,86.00000000000001,0)" xlink:href="#aI"/><use transform="matrix(0.05555555555555555,0,0,0.05555555555555555,96.00000000000001,0)" xlink:href="#aJ"/><use transform="matrix(0.05555555555555555,0,0,0.05555555555555555,101.55555555555557,0)" xlink:href="#aK"/><use transform="matrix(0.05555555555555555,0,0,0.05555555555555555,112.66666666666669,0)" xlink:href="#aK"/><use transform="matrix(0.05555555555555555,0,0,0.05555555555555555,123.7777777777778,0)" xlink:href="#ao"/><use transform="matrix(0.05555555555555555,0,0,0.05555555555555555,128.16666666666669,0)" xlink:href="#aL"/><use transform="matrix(0.05555555555555555,0,0,0.05555555555555555,139.2777777777778,0)" xlink:href="#ao"/><use transform="matrix(0.05555555555555555,0,0,0.05555555555555555,143.66666666666669,0)" xlink:href="#aF"/><use transform="matrix(0.05555555555555555,0,0,0.05555555555555555,149.22222222222223,0)" xlink:href="#aK"/><use transform="matrix(0.05555555555555555,0,0,0.05555555555555555,160.33333333333334,0)" xlink:href="#aK"/><use transform="matrix(0.05555555555555555,0,0,0.05555555555555555,171.44444444444446,0)" xlink:href="#aM"/><use transform="matrix(0.05555555555555555,0,0,0.05555555555555555,178.05555555555557,0)" xlink:href="#aI"/><use transform="matrix(0.05555555555555555,0,0,0.05555555555555555,188.05555555555557,0)" xlink:href="#ap"/><use transform="matrix(0.05555555555555555,0,0,0.05555555555555555,199.16666666666669,0)" xlink:href="#am"/><use transform="matrix(0.05555555555555555,0,0,0.05555555555555555,203.55555555555557,0)" xlink:href="#aY"/><use transform="matrix(0.05555555555555555,0,0,0.05555555555555555,209.11111111111111,0)" xlink:href="#aS"/></g><g id="O"><use transform="matrix(0.05555555555555555,0,0,0.05555555555555555,0,0)" xlink:href="#aT"/><use transform="matrix(0.05555555555555555,0,0,0.05555555555555555,10,0)" xlink:href="#aS"/></g><g id="P"><use transform="matrix(0.05555555555555555,0,0,0.05555555555555555,0,0)" xlink:href="#aQ"/><use transform="matrix(0.05555555555555555,0,0,0.05555555555555555,8.5,0)" xlink:href="#aS"/></g><g id="Q"><use transform="matrix(0.05555555555555555,0,0,0.05555555555555555,0,0)" xlink:href="#aO"/><use transform="matrix(0.05555555555555555,0,0,0.05555555555555555,11.11111111111111,0)" xlink:href="#ap"/><use transform="matrix(0.05555555555555555,0,0,0.05555555555555555,22.22222222222222,0)" xlink:href="#aP"/><use transform="matrix(0.05555555555555555,0,0,0.05555555555555555,33.33333333333333,0)" xlink:href="#am"/><use transform="matrix(0.05555555555555555,0,0,0.05555555555555555,37.722222222222214,0)" xlink:href="#aF"/><use transform="matrix(0.05555555555555555,0,0,0.05555555555555555,43.27777777777777,0)" xlink:href="#aO"/><use transform="matrix(0.05555555555555555,0,0,0.05555555555555555,54.388888888888886,0)" xlink:href="#aS"/></g><g id="R"><use transform="matrix(0.05555555555555555,0,0,0.05555555555555555,0,0)" xlink:href="#aU"/><use transform="matrix(0.05555555555555555,0,0,0.05555555555555555,16.61111111111111,0)" xlink:href="#aP"/><use transform="matrix(0.05555555555555555,0,0,0.05555555555555555,27.72222222222222,0)" xlink:href="#aT"/><use transform="matrix(0.05555555555555555,0,0,0.05555555555555555,37.72222222222222,0)" xlink:href="#aK"/><use transform="matrix(0.05555555555555555,0,0,0.05555555555555555,48.83333333333333,0)" xlink:href="#aO"/><use transform="matrix(0.05555555555555555,0,0,0.05555555555555555,59.94444444444444,0)" xlink:href="#ap"/><use transform="matrix(0.05555555555555555,0,0,0.05555555555555555,71.05555555555556,0)" xlink:href="#aP"/><use transform="matrix(0.05555555555555555,0,0,0.05555555555555555,82.16666666666667,0)" xlink:href="#am"/><use transform="matrix(0.05555555555555555,0,0,0.05555555555555555,86.55555555555556,0)" xlink:href="#aF"/><use transform="matrix(0.05555555555555555,0,0,0.05555555555555555,92.11111111111111,0)" xlink:href="#aO"/><use transform="matrix(0.05555555555555555,0,0,0.05555555555555555,103.22222222222223,0)" xlink:href="#aW"/></g><g id="S"><use transform="matrix(0.05555555555555555,0,0,0.05555555555555555,0,0)" xlink:href="#aD"/><use transform="matrix(0.05555555555555555,0,0,0.05555555555555555,11.666666666666666,0)" xlink:href="#aE"/><use transform="matrix(0.05555555555555555,0,0,0.05555555555555555,25,0)" xlink:href="#aF"/><use transform="matrix(0.05555555555555555,0,0,0.05555555555555555,30.55555555555556,0)" xlink:href="#aF"/><use transform="matrix(0.05555555555555555,0,0,0.05555555555555555,36.111111111111114,0)" xlink:href="#aq"/><use transform="matrix(0.05555555555555555,0,0,0.05555555555555555,42.72222222222223,0)" xlink:href="#ao"/><use transform="matrix(0.05555555555555555,0,0,0.05555555555555555,47.111111111111114,0)" xlink:href="#aG"/><use transform="matrix(0.05555555555555555,0,0,0.05555555555555555,58.22222222222223,0)" xlink:href="#aH"/><use transform="matrix(0.05555555555555555,0,0,0.05555555555555555,69.33333333333334,0)" xlink:href="#aF"/><use transform="matrix(0.05555555555555555,0,0,0.05555555555555555,74.8888888888889,0)" xlink:href="#ap"/><use transform="matrix(0.05555555555555555,0,0,0.05555555555555555,86.00000000000001,0)" xlink:href="#aI"/><use transform="matrix(0.05555555555555555,0,0,0.05555555555555555,96.00000000000001,0)" xlink:href="#aJ"/><use transform="matrix(0.05555555555555555,0,0,0.05555555555555555,101.55555555555557,0)" xlink:href="#an"/><use transform="matrix(0.05555555555555555,0,0,0.05555555555555555,112.66666666666669,0)" xlink:href="#aq"/><use transform="matrix(0.05555555555555555,0,0,0.05555555555555555,119.2777777777778,0)" xlink:href="#aP"/><use transform="matrix(0.05555555555555555,0,0,0.05555555555555555,130.3888888888889,0)" xlink:href="#aZ"/><use transform="matrix(0.05555555555555555,0,0,0.05555555555555555,144.7777777777778,0)" xlink:href="#aM"/><use transform="matrix(0.05555555555555555,0,0,0.05555555555555555,151.3888888888889,0)" xlink:href="#aI"/><use transform="matrix(0.05555555555555555,0,0,0.05555555555555555,161.3888888888889,0)" xlink:href="#ap"/><use transform="matrix(0.05555555555555555,0,0,0.05555555555555555,172.50000000000003,0)" xlink:href="#am"/><use transform="matrix(0.05555555555555555,0,0,0.05555555555555555,176.8888888888889,0)" xlink:href="#aY"/><use transform="matrix(0.05555555555555555,0,0,0.05555555555555555,182.44444444444446,0)" xlink:href="#aS"/></g><g id="T"><use transform="matrix(0.05555555555555555,0,0,0.05555555555555555,0,0)" xlink:href="#aO"/><use transform="matrix(0.05555555555555555,0,0,0.05555555555555555,11.11111111111111,0)" xlink:href="#ap"/><use transform="matrix(0.05555555555555555,0,0,0.05555555555555555,22.22222222222222,0)" xlink:href="#aP"/><use transform="matrix(0.05555555555555555,0,0,0.05555555555555555,33.33333333333333,0)" xlink:href="#am"/><use transform="matrix(0.05555555555555555,0,0,0.05555555555555555,37.722222222222214,0)" xlink:href="#aF"/><use transform="matrix(0.05555555555555555,0,0,0.05555555555555555,43.27777777777777,0)" xlink:href="#aO"/><use transform="matrix(0.05555555555555555,0,0,0.05555555555555555,54.388888888888886,0)" xlink:href="#aW"/><use transform="matrix(0.05555555555555555,0,0,0.05555555555555555,61,0)" xlink:href="#aJ"/></g><g id="U"><use transform="matrix(0.04839506149291992,0,0,0.04839506149291992,0,0)" xlink:href="#bi"/><use transform="matrix(0.04839506149291992,0,0,0.04839506149291992,11.614814758300781,0)" xlink:href="#aH"/><use transform="matrix(0.04839506149291992,0,0,0.04839506149291992,21.293827056884766,0)" xlink:href="#am"/><use transform="matrix(0.04839506149291992,0,0,0.04839506149291992,25.11703691482544,0)" xlink:href="#am"/><use transform="matrix(0.04839506149291992,0,0,0.04839506149291992,28.940246772766113,0)" xlink:href="#ap"/><use transform="matrix(0.04839506149291992,0,0,0.04839506149291992,38.6192590713501,0)" xlink:href="#aF"/></g><g id="V"><use transform="matrix(0.05555555555555555,0,0,0.05555555555555555,0,0)" xlink:href="#an"/><use transform="matrix(0.05555555555555555,0,0,0.05555555555555555,11.11111111111111,0)" xlink:href="#ao"/><use transform="matrix(0.05555555555555555,0,0,0.05555555555555555,15.5,0)" xlink:href="#aq"/><use transform="matrix(0.05555555555555555,0,0,0.05555555555555555,22.11111111111111,0)" xlink:href="#ap"/><use transform="matrix(0.05555555555555555,0,0,0.05555555555555555,33.22222222222222,0)" xlink:href="#aN"/><use transform="matrix(0.05555555555555555,0,0,0.05555555555555555,43.22222222222222,0)" xlink:href="#aF"/><use transform="matrix(0.05555555555555555,0,0,0.05555555555555555,48.77777777777778,0)" xlink:href="#ao"/><use transform="matrix(0.05555555555555555,0,0,0.05555555555555555,53.166666666666664,0)" xlink:href="#al"/><use transform="matrix(0.05555555555555555,0,0,0.05555555555555555,64.27777777777777,0)" xlink:href="#aL"/><use transform="matrix(0.05555555555555555,0,0,0.05555555555555555,75.38888888888889,0)" xlink:href="#aS"/></g><g id="W"><use transform="matrix(0.05,0,0,0.05,0,0)" xlink:href="#be"/><use transform="matrix(0.05,0,0,0.05,12.950000000000001,0)" xlink:href="#am"/><use transform="matrix(0.05,0,0,0.05,16.900000000000002,0)" xlink:href="#aP"/><use transform="matrix(0.05,0,0,0.05,26.900000000000002,0)" xlink:href="#aI"/><use transform="matrix(0.05,0,0,0.05,35.900000000000006,0)" xlink:href="#aI"/></g><path d="M143 4C61 4 22-44 18-125c-5-107 100-154 193-111 17 8 29 25 37 43l-32 9c-13-25-37-40-76-40-61 0-88 39-88 99 0 61 29 100 91 101 35 0 62-11 79-27v-45h-74v-28h105v86C228-13 192 4 143 4" id="bl"/><g id="X"><use transform="matrix(0.05,0,0,0.05,0,0)" xlink:href="#bl"/><use transform="matrix(0.05,0,0,0.05,14,0)" xlink:href="#aq"/><use transform="matrix(0.05,0,0,0.05,19.95,0)" xlink:href="#ap"/><use transform="matrix(0.05,0,0,0.05,29.950000000000003,0)" xlink:href="#aL"/><use transform="matrix(0.05,0,0,0.05,39.95,0)" xlink:href="#aP"/><use transform="matrix(0.05,0,0,0.05,49.95,0)" xlink:href="#an"/><use transform="matrix(0.05,0,0,0.05,59.95,0)" xlink:href="#ap"/></g><g id="Y"><use transform="matrix(0.04839506149291992,0,0,0.04839506149291992,0,0)" xlink:href="#aN"/><use transform="matrix(0.04839506149291992,0,0,0.04839506149291992,8.711111068725586,0)" xlink:href="#am"/><use transform="matrix(0.04839506149291992,0,0,0.04839506149291992,12.53432092666626,0)" xlink:href="#aP"/><use transform="matrix(0.04839506149291992,0,0,0.04839506149291992,22.213333225250246,0)" xlink:href="#aI"/><use transform="matrix(0.04839506149291992,0,0,0.04839506149291992,30.92444429397583,0)" xlink:href="#aI"/></g><g id="Z"><use transform="matrix(0.04839506149291992,0,0,0.04839506149291992,0,0)" xlink:href="#bg"/><use transform="matrix(0.04839506149291992,0,0,0.04839506149291992,11.614814758300781,0)" xlink:href="#aT"/><use transform="matrix(0.04839506149291992,0,0,0.04839506149291992,20.325925827026367,0)" xlink:href="#aR"/><use transform="matrix(0.04839506149291992,0,0,0.04839506149291992,30.00493812561035,0)" xlink:href="#am"/><use transform="matrix(0.04839506149291992,0,0,0.04839506149291992,33.82814798355103,0)" xlink:href="#al"/><use transform="matrix(0.04839506149291992,0,0,0.04839506149291992,43.50716028213501,0)" xlink:href="#aI"/><use transform="matrix(0.04839506149291992,0,0,0.04839506149291992,52.2182713508606,0)" xlink:href="#ao"/><use transform="matrix(0.04839506149291992,0,0,0.04839506149291992,56.04148120880127,0)" xlink:href="#al"/><use transform="matrix(0.04839506149291992,0,0,0.04839506149291992,65.72049350738526,0)" xlink:href="#aL"/></g><g id="aa"><use transform="matrix(0.05555555555555555,0,0,0.05555555555555555,0,0)" xlink:href="#aI"/><use transform="matrix(0.05555555555555555,0,0,0.05555555555555555,10,0)" xlink:href="#aN"/><use transform="matrix(0.05555555555555555,0,0,0.05555555555555555,20,0)" xlink:href="#aP"/><use transform="matrix(0.05555555555555555,0,0,0.05555555555555555,31.11111111111111,0)" xlink:href="#am"/><use transform="matrix(0.05555555555555555,0,0,0.05555555555555555,35.5,0)" xlink:href="#ap"/><use transform="matrix(0.05555555555555555,0,0,0.05555555555555555,46.611111111111114,0)" xlink:href="#aS"/></g><path d="M63-220v92h138v28H63V0H30v-248h175v28H63" id="bm"/><g id="ab"><use transform="matrix(0.04839506149291992,0,0,0.04839506149291992,0,0)" xlink:href="#ak"/><use transform="matrix(0.04839506149291992,0,0,0.04839506149291992,11.614814758300781,0)" xlink:href="#aN"/><use transform="matrix(0.04839506149291992,0,0,0.04839506149291992,20.325925827026367,0)" xlink:href="#aq"/><use transform="matrix(0.04839506149291992,0,0,0.04839506149291992,26.08493814468384,0)" xlink:href="#ap"/><use transform="matrix(0.04839506149291992,0,0,0.04839506149291992,35.763950443267824,0)" xlink:href="#ap"/><use transform="matrix(0.04839506149291992,0,0,0.04839506149291992,45.44296274185181,0)" xlink:href="#aL"/><use transform="matrix(0.04839506149291992,0,0,0.04839506149291992,55.12197504043579,0)" xlink:href="#bm"/><use transform="matrix(0.04839506149291992,0,0,0.04839506149291992,65.72049350738526,0)" xlink:href="#aP"/><use transform="matrix(0.04839506149291992,0,0,0.04839506149291992,75.39950580596924,0)" xlink:href="#an"/><use transform="matrix(0.04839506149291992,0,0,0.04839506149291992,85.07851810455323,0)" xlink:href="#ap"/></g><g id="ac"><use transform="matrix(0.05555555555555555,0,0,0.05555555555555555,0,0)" xlink:href="#an"/><use transform="matrix(0.05555555555555555,0,0,0.05555555555555555,11.11111111111111,0)" xlink:href="#ao"/><use transform="matrix(0.05555555555555555,0,0,0.05555555555555555,15.5,0)" xlink:href="#aq"/><use transform="matrix(0.05555555555555555,0,0,0.05555555555555555,22.11111111111111,0)" xlink:href="#ap"/><use transform="matrix(0.05555555555555555,0,0,0.05555555555555555,33.22222222222222,0)" xlink:href="#aN"/><use transform="matrix(0.05555555555555555,0,0,0.05555555555555555,43.22222222222222,0)" xlink:href="#aF"/><use transform="matrix(0.05555555555555555,0,0,0.05555555555555555,48.77777777777778,0)" xlink:href="#ao"/><use transform="matrix(0.05555555555555555,0,0,0.05555555555555555,53.166666666666664,0)" xlink:href="#al"/><use transform="matrix(0.05555555555555555,0,0,0.05555555555555555,64.27777777777777,0)" xlink:href="#aL"/><use transform="matrix(0.05555555555555555,0,0,0.05555555555555555,75.38888888888889,0)" xlink:href="#aS"/></g><g id="ad"><use transform="matrix(0.05555555555555555,0,0,0.05555555555555555,0,0)" xlink:href="#aN"/><use transform="matrix(0.05555555555555555,0,0,0.05555555555555555,10,0)" xlink:href="#al"/><use transform="matrix(0.05555555555555555,0,0,0.05555555555555555,21.11111111111111,0)" xlink:href="#am"/><use transform="matrix(0.05555555555555555,0,0,0.05555555555555555,25.5,0)" xlink:href="#al"/><use transform="matrix(0.05555555555555555,0,0,0.05555555555555555,36.611111111111114,0)" xlink:href="#aH"/><use transform="matrix(0.05555555555555555,0,0,0.05555555555555555,47.72222222222223,0)" xlink:href="#aq"/><use transform="matrix(0.05555555555555555,0,0,0.05555555555555555,53.22222222222223,0)" xlink:href="#aS"/></g><g id="ae"><use transform="matrix(0.05555555555555555,0,0,0.05555555555555555,0,0)" xlink:href="#aI"/><use transform="matrix(0.05555555555555555,0,0,0.05555555555555555,10,0)" xlink:href="#aR"/><use transform="matrix(0.05555555555555555,0,0,0.05555555555555555,21.11111111111111,0)" xlink:href="#ap"/><use transform="matrix(0.05555555555555555,0,0,0.05555555555555555,32.22222222222222,0)" xlink:href="#ap"/><use transform="matrix(0.05555555555555555,0,0,0.05555555555555555,43.33333333333333,0)" xlink:href="#an"/><use transform="matrix(0.05555555555555555,0,0,0.05555555555555555,54.44444444444444,0)" xlink:href="#aW"/></g><g id="af"><use transform="matrix(0.05555555555555555,0,0,0.05555555555555555,0,0)" xlink:href="#aD"/><use transform="matrix(0.05555555555555555,0,0,0.05555555555555555,11.666666666666666,0)" xlink:href="#aE"/><use transform="matrix(0.05555555555555555,0,0,0.05555555555555555,25,0)" xlink:href="#aF"/><use transform="matrix(0.05555555555555555,0,0,0.05555555555555555,30.55555555555556,0)" xlink:href="#aF"/><use transform="matrix(0.05555555555555555,0,0,0.05555555555555555,36.111111111111114,0)" xlink:href="#aq"/><use transform="matrix(0.05555555555555555,0,0,0.05555555555555555,42.72222222222223,0)" xlink:href="#ao"/><use transform="matrix(0.05555555555555555,0,0,0.05555555555555555,47.111111111111114,0)" xlink:href="#aG"/><use transform="matrix(0.05555555555555555,0,0,0.05555555555555555,58.22222222222223,0)" xlink:href="#aH"/><use transform="matrix(0.05555555555555555,0,0,0.05555555555555555,69.33333333333334,0)" xlink:href="#aF"/><use transform="matrix(0.05555555555555555,0,0,0.05555555555555555,74.8888888888889,0)" xlink:href="#ap"/><use transform="matrix(0.05555555555555555,0,0,0.05555555555555555,86.00000000000001,0)" xlink:href="#aI"/><use transform="matrix(0.05555555555555555,0,0,0.05555555555555555,96.00000000000001,0)" xlink:href="#aJ"/><use transform="matrix(0.05555555555555555,0,0,0.05555555555555555,101.55555555555557,0)" xlink:href="#aY"/><use transform="matrix(0.05555555555555555,0,0,0.05555555555555555,107.11111111111113,0)" xlink:href="#aP"/><use transform="matrix(0.05555555555555555,0,0,0.05555555555555555,118.22222222222224,0)" xlink:href="#an"/><use transform="matrix(0.05555555555555555,0,0,0.05555555555555555,129.33333333333334,0)" xlink:href="#ap"/><use transform="matrix(0.05555555555555555,0,0,0.05555555555555555,140.44444444444446,0)" xlink:href="#aM"/><use transform="matrix(0.05555555555555555,0,0,0.05555555555555555,147.05555555555557,0)" xlink:href="#aI"/><use transform="matrix(0.05555555555555555,0,0,0.05555555555555555,157.05555555555557,0)" xlink:href="#ap"/><use transform="matrix(0.05555555555555555,0,0,0.05555555555555555,168.16666666666669,0)" xlink:href="#am"/><use transform="matrix(0.05555555555555555,0,0,0.05555555555555555,172.55555555555557,0)" xlink:href="#aY"/><use transform="matrix(0.05555555555555555,0,0,0.05555555555555555,178.11111111111111,0)" xlink:href="#aW"/></g></defs></g></svg>